<?xml version="1.0" standalone="no"?>
<!DOCTYPE svg PUBLIC "-//W3C//DTD SVG 20010904//EN"
 "http://www.w3.org/TR/2001/REC-SVG-20010904/DTD/svg10.dtd">
<svg version="1.0" xmlns="http://www.w3.org/2000/svg"
 width="450.000000pt" height="450.000000pt" viewBox="0 0 450.000000 450.000000"
 preserveAspectRatio="xMidYMid meet">
<g transform="translate(0.000000,450.000000) scale(0.100000,-0.100000)"
fill="#000000" stroke="none">
<path d="M2120 4298 c-588 -31 -1060 -359 -1220 -847 -85 -263 -86 -565 -4
-1341 31 -291 101 -855 116 -933 17 -90 0 -69 526 -637 239 -257 243 -260 409
-285 134 -21 449 -20 590 0 195 29 169 8 602 478 313 340 305 331 332 392 39
88 154 1061 190 1599 37 568 -55 892 -335 1172 -176 176 -386 289 -661 358
-172 43 -330 56 -545 44z m295 -29 c-3 -3 7 -4 22 -1 14 3 23 1 20 -4 -3 -5
18 -9 46 -9 28 1 74 -5 102 -13 27 -8 58 -15 68 -15 9 -1 17 -5 17 -10 0 -5 9
-7 20 -4 11 3 26 0 33 -6 6 -7 17 -12 22 -12 21 -1 101 -27 112 -37 7 -6 11
-14 8 -18 -2 -3 9 -6 25 -5 35 2 99 -26 124 -54 11 -12 24 -21 30 -21 6 0 4 5
-4 10 -8 5 -10 10 -5 10 13 -1 52 -30 39 -30 -9 0 13 -14 73 -45 18 -9 38 -24
45 -33 12 -16 11 -16 -7 -2 -18 14 -19 13 -8 -1 7 -9 9 -20 5 -25 -4 -4 1 -2
11 5 15 12 20 11 36 -5 9 -11 16 -24 14 -31 -2 -6 4 -10 14 -9 11 0 18 -5 17
-16 -1 -10 3 -15 8 -12 12 8 65 -49 60 -64 -2 -7 8 -16 22 -22 15 -5 32 -22
38 -37 7 -16 23 -41 35 -56 13 -16 23 -34 23 -42 0 -7 6 -18 14 -24 8 -7 17
-24 21 -39 4 -15 12 -34 19 -42 7 -8 16 -24 18 -35 3 -11 9 -29 14 -39 6 -15
4 -18 -7 -12 -8 4 -7 1 3 -6 21 -18 51 -119 42 -143 -6 -14 -4 -16 6 -10 8 5
11 4 7 -1 -3 -6 -2 -29 4 -52 13 -61 20 -168 19 -322 0 -149 -7 -283 -25 -465
-2 -22 -6 -74 -10 -115 -3 -41 -10 -111 -16 -155 -6 -44 -12 -107 -14 -140 -4
-58 -8 -89 -40 -325 -12 -88 -22 -181 -28 -262 -1 -9 -4 -15 -8 -13 -6 4 -8
-11 -9 -92 -1 -24 -4 -43 -8 -43 -4 0 -8 -27 -8 -61 0 -33 -5 -64 -10 -67 -5
-4 -10 -20 -11 -37 -1 -16 -7 -31 -13 -33 -5 -2 -10 -10 -10 -18 0 -9 -5 -12
-12 -8 -6 4 -8 3 -5 -4 11 -16 -4 -44 -20 -38 -8 3 -12 2 -9 -3 3 -5 -14 -30
-38 -56 -25 -25 -47 -53 -50 -61 -3 -8 -13 -14 -21 -14 -9 0 -14 -4 -11 -9 3
-4 -4 -17 -16 -27 -12 -11 -18 -13 -14 -7 5 9 2 11 -9 7 -9 -4 -14 -12 -11
-19 4 -12 -13 -31 -58 -65 -18 -14 -19 -13 -14 8 4 13 2 20 -4 16 -5 -3 -7
-16 -4 -28 4 -15 -3 -31 -19 -49 -14 -14 -25 -31 -25 -37 0 -5 -6 -9 -12 -7
-7 1 -12 -5 -10 -13 2 -8 1 -12 -3 -8 -4 3 -20 -8 -37 -25 -16 -18 -27 -27
-24 -20 4 6 2 14 -2 17 -5 3 -9 -5 -8 -17 1 -12 -7 -28 -17 -36 -17 -12 -22
-11 -40 9 -12 13 -16 20 -9 16 6 -4 12 -2 12 4 0 6 5 8 10 5 6 -4 10 -3 9 2
-3 19 2 34 10 28 5 -3 13 4 16 15 6 18 9 19 22 8 14 -11 15 -11 5 8 -9 16 -7
22 10 33 15 9 18 10 13 0 -5 -8 -4 -10 3 -5 7 4 12 13 12 21 0 21 17 27 32 11
13 -12 16 -11 28 8 11 18 11 19 -1 9 -9 -7 -20 -8 -28 -4 -17 11 -5 32 17 29
9 -2 17 3 18 10 1 6 3 15 4 20 1 4 2 11 1 15 -1 5 3 6 9 2 5 -3 10 -1 10 5 0
20 58 71 66 59 5 -8 3 -9 -6 -4 -9 5 -11 4 -6 -4 12 -18 25 -3 21 25 -2 17 2
24 11 20 9 -3 11 0 7 11 -5 13 -2 15 12 9 11 -4 16 -4 12 0 -9 9 22 44 39 44
7 0 16 5 20 12 5 8 2 9 -11 4 -15 -5 -16 -4 -5 9 7 8 17 12 23 8 6 -4 7 -1 2
7 -6 10 -4 12 8 7 9 -3 19 -1 23 5 5 7 2 8 -7 4 -8 -4 -6 -1 4 7 9 8 17 20 17
28 0 11 2 11 11 -1 9 -13 10 -12 5 3 -3 9 3 33 14 51 10 19 19 43 19 53 0 10
3 36 5 58 3 22 5 50 5 63 1 13 5 21 10 18 5 -4 7 2 4 12 -2 11 1 54 7 98 6 43
13 101 16 128 2 27 9 56 16 64 11 13 11 14 -1 8 -10 -7 -12 -2 -6 22 3 17 8
46 10 64 9 72 18 113 26 123 4 6 4 17 -1 25 -5 8 -4 22 2 33 8 15 7 18 -4 11
-11 -6 -11 -5 0 8 8 10 9 18 3 22 -6 4 -7 14 -4 23 6 15 5 15 -8 4 -8 -8 -15
-28 -15 -45 -2 -33 -78 -622 -94 -718 -12 -75 -20 -90 -105 -178 -100 -105
-415 -449 -441 -483 -24 -30 -40 -36 -25 -9 8 15 113 408 221 825 44 169 14
125 279 406 80 84 149 159 153 165 4 7 3 18 -2 25 -6 10 -10 8 -15 -8 -4 -14
-12 -20 -21 -17 -8 3 -13 2 -10 -3 8 -12 -19 -33 -28 -23 -4 4 -6 2 -5 -3 2
-6 -9 -28 -25 -50 -16 -23 -25 -31 -21 -18 3 12 1 24 -5 28 -5 3 -10 11 -10
17 0 6 7 5 18 -3 15 -13 16 -12 3 4 -12 15 -11 20 4 37 14 16 21 17 39 8 11
-6 18 -7 13 -3 -4 5 1 18 10 29 18 21 18 21 -5 2 -25 -22 -41 -16 -18 7 8 8
12 18 8 22 -4 4 -2 5 4 3 7 -1 21 8 33 21 12 13 21 21 21 16 0 -4 7 -2 15 5 8
7 15 17 15 23 0 6 -7 2 -15 -9 -8 -10 -15 -14 -15 -8 0 17 28 37 43 31 8 -3
14 1 14 9 0 7 -5 10 -11 7 -6 -3 -5 0 2 8 14 15 16 51 3 65 -5 5 -18 25 -29
45 -15 27 -16 36 -6 36 7 0 11 -4 8 -9 -3 -4 0 -8 6 -8 6 0 8 -5 4 -11 -4 -7
7 -4 23 6 26 15 32 26 37 69 3 28 3 62 1 76 -4 19 -3 21 3 6 5 -12 8 4 7 45 0
35 4 75 9 88 5 14 4 21 -1 18 -5 -4 -6 19 -2 56 4 34 5 65 3 69 -3 5 -2 8 3 8
4 0 7 31 6 70 -1 38 1 70 5 70 9 0 7 163 -2 179 -4 6 -1 11 6 11 9 0 9 3 -2
10 -11 7 -11 10 -2 10 7 0 11 3 9 8 -3 4 -8 42 -11 85 -8 96 -15 143 -27 174
-5 14 -5 22 0 19 9 -6 -6 50 -28 107 -6 16 -8 33 -5 39 4 7 2 8 -4 4 -7 -4
-12 -2 -12 4 0 7 -9 24 -20 40 -11 15 -17 29 -15 32 3 3 -2 5 -10 5 -8 0 -12
-4 -9 -9 3 -4 -2 -8 -11 -8 -9 0 -13 -4 -10 -10 3 -5 2 -18 -4 -27 -8 -15 -9
-14 -7 7 2 14 9 39 15 55 7 17 10 42 7 57 -3 15 -1 30 4 33 6 3 10 14 9 23 0
12 -3 10 -10 -6 -5 -13 -14 -20 -20 -17 -6 4 -8 13 -5 21 3 8 0 13 -6 11 -6
-1 -13 4 -16 12 -3 8 0 11 7 7 6 -4 11 -2 11 4 0 7 -6 10 -14 7 -18 -7 -64 51
-60 76 1 9 -2 15 -7 11 -5 -3 -6 -11 -2 -17 4 -7 -1 -6 -11 2 -13 11 -14 16
-4 22 10 7 8 9 -5 9 -10 0 -15 4 -12 10 4 6 -1 7 -11 3 -11 -4 -15 -3 -10 5 3
6 0 14 -8 19 -36 21 -95 76 -90 84 3 5 2 9 -3 7 -16 -4 -73 37 -68 49 2 7 1
12 -3 12 -22 -4 -42 2 -37 11 4 6 -1 7 -11 3 -12 -4 -15 -3 -10 6 4 6 4 10 -1
9 -4 -1 -18 2 -31 6 -17 5 -29 3 -42 -9 -18 -16 -18 -16 -13 3 3 12 -2 31 -11
44 -9 12 -16 19 -16 15 0 -5 -7 -1 -16 7 -8 9 -20 14 -24 11 -5 -3 -32 6 -61
20 -28 15 -57 24 -65 21 -8 -3 -14 -1 -14 4 0 6 -12 10 -26 10 -14 0 -23 4
-20 8 2 4 -3 8 -12 9 -23 1 -65 9 -147 27 -38 8 -106 18 -150 22 -44 4 -86 11
-92 17 -9 6 -17 6 -26 -2 -9 -6 -38 -8 -80 -5 -39 3 -82 1 -101 -6 -19 -6 -63
-13 -98 -16 -59 -4 -103 -10 -103 -14 0 -1 -9 -3 -20 -5 -11 -2 -36 -7 -55
-11 -19 -4 -43 -7 -52 -8 -9 0 -14 -4 -12 -8 3 -4 -8 -10 -23 -13 -15 -4 -54
-17 -87 -30 -32 -14 -63 -22 -69 -18 -6 3 -7 1 -3 -5 4 -7 5 -12 2 -12 -2 0
-13 -3 -23 -7 -16 -6 -17 -5 -3 13 14 18 14 18 -3 5 -9 -8 -15 -16 -12 -19 3
-3 -2 -16 -11 -30 -9 -13 -11 -21 -5 -18 6 4 11 0 11 -10 0 -15 -3 -15 -23 4
-16 15 -27 18 -37 12 -22 -14 -53 -13 -44 2 4 7 3 8 -5 4 -6 -4 -9 -11 -6 -16
3 -4 -1 -11 -7 -14 -7 -3 -2 -4 12 -1 16 3 11 -2 -15 -14 -22 -11 -35 -20 -30
-20 9 -1 -52 -43 -67 -47 -5 -1 -11 -3 -15 -4 -5 -1 -12 -2 -16 -1 -5 1 -6 -3
-2 -9 5 -8 12 -7 23 2 15 12 16 11 3 -5 -8 -10 -20 -16 -28 -13 -8 3 -12 2 -9
-2 8 -13 -22 -44 -35 -36 -8 5 -10 3 -4 -6 5 -9 2 -10 -13 -6 -11 4 -23 2 -27
-3 -3 -7 0 -8 9 -5 9 3 16 2 16 -2 0 -13 -20 -41 -20 -29 0 6 -5 2 -11 -8 -9
-15 -13 -16 -27 -5 -15 11 -15 11 -4 -4 11 -14 10 -19 -7 -35 -11 -10 -35 -44
-54 -75 -19 -32 -38 -54 -42 -50 -4 4 -6 0 -3 -8 3 -8 1 -25 -3 -37 -6 -16 -5
-23 4 -24 9 0 9 -2 0 -5 -7 -3 -9 -12 -6 -20 3 -9 0 -14 -8 -12 -7 2 -21 -12
-30 -29 -9 -18 -20 -29 -24 -25 -5 4 -5 1 -1 -6 4 -7 3 -18 -2 -25 -11 -15
-42 -137 -42 -169 0 -19 -2 -20 -10 -8 -7 11 -8 5 -4 -19 5 -23 3 -36 -7 -43
-10 -6 -10 -11 -3 -14 8 -3 9 -17 5 -37 -4 -18 -6 -65 -6 -104 0 -43 -4 -73
-10 -73 -5 0 -4 -4 4 -9 8 -6 10 -14 5 -22 -11 -18 -14 -39 -6 -39 4 0 8 -35
9 -78 1 -42 5 -97 8 -120 4 -27 2 -41 -4 -38 -6 4 -6 -6 -1 -26 5 -18 11 -62
14 -98 2 -36 7 -87 10 -115 4 -27 9 -75 12 -105 2 -30 5 -61 6 -67 1 -7 5 -13
10 -13 5 0 7 -4 3 -9 -3 -5 0 -13 6 -17 7 -4 9 -3 6 3 -4 6 5 15 18 21 14 7
25 19 25 27 0 9 5 13 10 10 13 -8 -22 -55 -35 -47 -5 3 -4 -2 4 -11 12 -15 11
-17 -5 -18 -11 -1 -23 -1 -27 0 -5 1 -6 -3 -2 -9 3 -6 11 -8 16 -5 5 4 5 -5
-1 -20 -6 -15 -8 -30 -5 -35 3 -5 1 -11 -5 -15 -5 -3 -10 -12 -10 -18 0 -7 4
-6 10 3 8 13 10 12 10 -3 0 -10 4 -16 9 -13 5 3 15 -2 22 -11 10 -12 10 -14 2
-9 -7 4 -13 3 -13 -2 0 -6 11 -13 25 -16 14 -4 25 -11 25 -17 0 -6 -5 -7 -12
-3 -7 4 -8 3 -4 -5 4 -6 12 -9 17 -6 5 3 19 -3 31 -14 12 -12 18 -21 12 -21
-5 0 -1 -5 9 -11 9 -6 14 -15 11 -21 -4 -6 -3 -8 4 -5 10 7 92 -77 92 -95 0
-5 4 -7 9 -4 5 3 14 -1 21 -9 10 -12 10 -18 -1 -32 -13 -15 -12 -15 8 -5 25
14 36 15 29 4 -3 -5 6 -16 20 -26 13 -11 24 -26 24 -34 0 -8 3 -13 6 -9 10 10
36 -22 28 -34 -4 -7 -3 -9 4 -5 19 11 70 -41 67 -69 -2 -14 1 -23 6 -19 5 3 6
11 2 17 -3 7 3 4 15 -6 12 -11 18 -26 15 -35 -4 -14 -3 -15 5 -2 9 12 13 9 21
-13 15 -40 13 -54 -4 -31 -14 18 -15 18 -6 -6 5 -14 14 -24 21 -22 7 2 9 -5 5
-19 -5 -16 -4 -19 6 -14 9 6 11 4 6 -8 -3 -9 -2 -19 3 -22 6 -4 10 -11 10 -16
0 -6 -4 -8 -8 -5 -4 2 -8 -4 -8 -14 0 -10 5 -16 11 -14 6 3 12 -3 13 -13 1
-10 6 -45 12 -78 6 -33 12 -74 13 -92 1 -21 5 -28 13 -22 7 5 11 4 11 -4 1
-19 10 -59 23 -104 11 -37 11 -45 -4 -68 -10 -15 -20 -25 -22 -22 -11 11 -53
190 -47 199 3 7 1 8 -5 4 -8 -5 -12 4 -13 26 -1 32 -3 45 -9 61 -1 4 -3 10 -5
15 -1 4 -5 14 -8 22 -4 8 -8 26 -10 40 -2 14 -6 32 -9 40 -18 48 -27 100 -22
116 4 14 3 15 -4 6 -7 -11 -10 -9 -15 7 -3 12 -1 19 4 15 5 -3 6 2 3 10 -3 9
-9 15 -12 14 -4 -1 -32 22 -62 52 -30 29 -50 50 -43 46 6 -3 15 -1 19 6 4 7 4
10 -1 6 -10 -9 -67 20 -60 31 5 9 -18 33 -26 28 -2 -1 -3 0 -2 2 1 2 -16 19
-37 39 -22 19 -40 41 -40 48 0 7 -9 16 -20 19 -11 3 -20 12 -20 20 0 7 -9 15
-21 18 -12 3 -18 10 -14 16 3 6 3 11 -2 11 -15 0 -60 45 -77 78 -9 17 -21 32
-27 32 -6 0 -3 -7 5 -16 21 -20 21 -30 0 -14 -8 8 -14 9 -13 4 4 -21 -2 -34
-16 -34 -8 0 -15 -8 -15 -17 0 -15 2 -16 10 -3 11 17 11 17 16 -63 2 -31 8
-74 13 -95 6 -20 7 -38 2 -40 -4 -1 -2 -26 5 -54 8 -28 16 -72 19 -97 3 -25 8
-66 11 -91 3 -24 7 -47 9 -51 2 -3 7 -50 10 -104 3 -54 11 -107 16 -117 5 -10
7 -23 3 -29 -4 -6 -2 -14 4 -18 5 -3 12 -15 14 -26 1 -11 13 -31 26 -45 26
-29 29 -48 4 -29 -15 13 -16 12 -3 -3 7 -10 17 -15 22 -12 5 2 23 -10 41 -27
18 -18 27 -29 21 -25 -9 5 -11 2 -7 -8 3 -9 10 -14 14 -11 4 3 34 -25 66 -61
33 -36 71 -78 86 -94 15 -15 24 -31 20 -36 -4 -4 -1 -4 6 0 9 5 15 1 19 -13 3
-11 13 -23 23 -26 10 -3 20 -15 23 -26 3 -13 10 -18 17 -14 7 4 10 1 8 -8 -2
-9 14 -32 36 -51 32 -30 36 -38 26 -51 -9 -10 -9 -15 -1 -15 10 0 15 14 12 33
-1 5 4 5 10 2 6 -4 9 -15 6 -25 -3 -13 0 -17 9 -13 8 3 15 0 15 -6 1 -6 2 -17
3 -23 0 -7 7 -14 14 -14 6 -1 19 -2 28 -3 8 0 13 -5 10 -9 -3 -5 2 -9 10 -9
21 0 39 41 28 64 -4 10 -8 23 -9 28 0 6 -3 15 -6 20 -13 22 -30 115 -23 126 4
8 3 9 -4 5 -8 -5 -12 1 -12 16 0 13 -7 44 -15 71 -8 26 -12 47 -10 47 2 0 -2
12 -10 27 -15 28 -9 49 19 73 14 10 16 10 17 -6 1 -11 1 -25 0 -31 -1 -7 3
-13 9 -13 6 0 10 -8 9 -17 -1 -10 0 -20 1 -23 4 -10 10 -46 12 -65 1 -11 6
-23 12 -27 6 -4 4 -13 -5 -24 -8 -10 -9 -15 -3 -11 7 4 14 -1 17 -11 2 -9 8
-26 13 -36 5 -13 4 -17 -3 -13 -8 5 -8 -3 0 -28 6 -19 14 -35 18 -35 5 0 11
-17 15 -38 7 -38 29 -131 40 -165 4 -14 3 -17 -6 -12 -9 5 -11 4 -6 -4 9 -14
-12 -43 -24 -36 -10 6 -25 -14 -17 -22 3 -3 12 -1 19 3 22 14 36 13 53 -6 10
-11 24 -16 33 -13 9 4 13 2 9 -4 -4 -7 5 -14 23 -18 17 -4 28 -10 26 -13 -2
-4 12 -7 32 -8 21 0 94 -6 165 -14 105 -12 155 -12 285 -2 181 14 187 15 225
31 16 6 33 9 38 5 5 -3 9 0 9 7 0 7 10 9 30 6 16 -4 32 -2 35 3 3 5 0 7 -8 4
-8 -3 -18 0 -23 7 -4 8 -3 10 4 5 7 -4 12 0 12 10 0 10 3 14 7 10 8 -7 43 94
48 139 2 17 24 107 49 200 26 94 47 180 46 193 0 12 4 22 9 22 5 0 12 7 15 16
3 8 2 12 -3 9 -6 -3 -5 9 1 27 5 18 11 44 13 57 2 13 7 27 12 30 4 3 9 22 11
41 1 19 9 52 17 73 8 20 15 49 15 63 0 16 4 23 12 18 7 -4 8 -3 4 4 -7 12 31
182 45 196 5 6 9 25 9 44 0 31 2 33 18 21 15 -13 16 -12 4 3 -14 18 -7 43 9
32 5 -3 8 0 7 7 -2 7 6 17 18 23 11 6 19 16 17 23 -2 6 1 15 8 19 8 5 10 3 5
-7 -4 -8 5 0 19 16 15 17 24 23 19 15 -4 -9 -3 -12 2 -7 5 5 8 12 7 15 -3 13
30 42 40 35 6 -4 8 0 4 10 -7 20 23 33 36 15 6 -9 7 -7 3 6 -4 11 0 24 11 33
12 9 13 12 3 8 -8 -4 -4 3 9 14 19 17 27 19 40 9 13 -10 14 -10 4 2 -15 16 2
54 22 47 9 -4 11 1 8 16 l-5 22 16 -22 c13 -17 14 -28 7 -42 -6 -10 -8 -21 -5
-24 3 -3 0 -8 -7 -13 -8 -5 -10 -3 -4 7 8 12 6 12 -8 0 -9 -7 -14 -17 -11 -22
3 -5 -2 -6 -10 -3 -9 3 -16 11 -16 17 0 6 -3 7 -6 4 -4 -4 -2 -13 5 -20 9 -11
8 -17 -3 -27 -9 -6 -19 -9 -24 -6 -5 3 -9 -1 -9 -9 0 -8 5 -11 10 -8 6 4 7 1
3 -6 -5 -7 -14 -10 -22 -7 -9 3 -11 0 -7 -11 5 -12 3 -14 -7 -8 -8 5 -11 4 -7
-2 4 -6 -1 -17 -10 -24 -14 -12 -16 -12 -8 0 5 10 4 12 -3 7 -7 -4 -12 -14
-12 -23 0 -12 -3 -13 -14 -4 -11 9 -16 9 -22 0 -4 -7 -3 -9 4 -5 7 4 10 -1 9
-14 -1 -20 -22 -34 -37 -25 -5 3 -11 1 -14 -4 -4 -5 -2 -12 4 -16 6 -4 5 -11
-3 -20 -8 -9 -16 -10 -25 -3 -9 8 -11 7 -7 -4 3 -8 -1 -21 -9 -28 -9 -7 -13
-16 -10 -21 3 -5 -2 -35 -11 -67 -10 -31 -19 -68 -22 -82 -2 -13 -9 -28 -15
-31 -6 -4 -7 -12 -3 -18 4 -7 1 -18 -5 -26 -6 -8 -9 -18 -6 -23 3 -6 -1 -29
-9 -52 -8 -23 -12 -47 -8 -53 3 -6 1 -7 -5 -3 -8 5 -12 -1 -11 -16 0 -32 -23
-118 -32 -118 -5 0 -6 -6 -3 -14 3 -7 -2 -30 -10 -51 -9 -21 -16 -48 -16 -61
0 -13 -4 -24 -9 -24 -6 0 -10 -8 -10 -17 0 -10 -11 -62 -24 -115 -14 -54 -22
-100 -18 -104 3 -4 -2 -4 -11 -1 -15 5 -16 3 -7 -11 9 -14 8 -26 -5 -50 -14
-28 -15 -35 -3 -52 13 -18 15 -19 38 -2 l24 16 -19 -29 c-13 -20 -14 -26 -4
-18 8 7 17 10 20 8 3 -3 4 5 3 18 -2 13 6 34 17 48 11 13 16 17 12 9 -5 -11
-1 -10 13 3 14 12 23 15 28 8 3 -6 1 -11 -5 -11 -7 0 -4 -7 5 -16 15 -15 15
-18 -1 -36 -10 -10 -24 -16 -31 -14 -7 3 -15 0 -19 -6 -4 -7 -3 -8 5 -4 7 5 0
-10 -16 -32 -16 -23 -31 -35 -35 -29 -4 6 -10 -1 -13 -16 -4 -15 -11 -25 -15
-22 -5 3 -11 -4 -15 -15 -13 -41 -117 -99 -183 -103 -26 -1 -49 -5 -52 -9 -24
-32 -592 -29 -652 3 -10 5 -23 7 -28 4 -19 -12 -147 64 -132 79 3 4 -1 4 -11
0 -9 -3 -17 -2 -17 2 0 15 -76 94 -83 87 -4 -3 -7 1 -7 11 0 10 5 14 12 10 7
-4 8 -3 4 4 -4 6 -14 8 -24 5 -15 -6 -15 -4 2 15 18 21 18 21 -3 17 -27 -5
-53 4 -45 16 3 5 10 7 15 4 23 -15 6 5 -18 21 -27 17 -28 17 -14 -2 7 -10 2
-7 -12 8 -14 15 -28 24 -31 20 -4 -3 -4 1 -1 10 4 9 1 19 -6 24 -8 5 -10 3 -4
-7 5 -8 -4 -3 -18 10 -14 13 -25 26 -24 30 1 3 -2 6 -6 6 -14 0 -29 34 -21 48
5 7 0 6 -11 -3 -10 -8 -16 -10 -12 -4 4 7 0 17 -8 24 -7 6 -11 19 -8 28 4 14
3 14 -5 3 -9 -12 -12 -12 -26 1 -8 9 -12 18 -9 22 4 3 1 6 -6 6 -7 0 -10 4 -7
9 3 5 -1 12 -10 15 -10 4 -13 2 -8 -6 5 -7 3 -8 -5 -4 -7 5 -10 15 -7 23 3 8
2 12 -2 9 -4 -2 -16 2 -27 10 -10 8 -15 14 -10 14 5 0 -13 20 -40 44 -44 41
-47 47 -34 63 12 16 12 17 -1 6 -12 -9 -23 -3 -60 35 -25 25 -38 42 -30 37 8
-4 1 5 -17 22 -31 28 -32 30 -15 48 16 18 16 18 -2 4 -18 -13 -19 -12 -13 4 4
10 3 16 -2 12 -10 -6 -24 26 -27 60 -8 85 -16 147 -24 190 -6 28 -13 79 -16
115 -8 90 -10 114 -23 200 -7 41 -13 93 -16 115 -2 22 -8 72 -14 110 -6 39 -9
95 -8 127 1 31 -2 54 -7 50 -5 -3 -7 5 -3 17 3 12 2 35 -3 52 -5 16 -11 62
-15 102 -3 39 -8 88 -10 107 -6 47 -19 253 -20 317 0 28 -3 49 -6 47 -4 -2 -7
42 -8 98 0 56 -4 110 -7 121 -4 11 -2 17 3 14 6 -4 10 23 10 66 0 128 6 197
15 191 5 -3 6 6 2 22 -6 21 -4 25 7 19 11 -7 12 -6 3 6 -7 8 -8 22 -3 34 4 11
8 33 8 48 1 17 5 26 11 22 7 -4 9 2 5 18 -4 16 -1 30 10 41 9 9 14 16 11 16
-10 0 39 126 62 157 12 17 22 35 22 41 0 5 9 21 20 34 10 14 16 29 12 33 -4 5
-1 5 6 1 6 -4 12 -2 12 5 0 15 62 85 73 81 5 -1 5 2 2 8 -4 7 3 22 16 36 25
27 49 33 28 7 -13 -15 -12 -15 8 -2 12 7 18 16 12 20 -6 3 -2 15 10 30 15 17
21 20 21 9 1 -8 5 -5 11 9 8 19 12 21 24 11 13 -11 14 -10 8 5 -5 15 -3 17 12
12 15 -6 16 -5 5 8 -10 12 -10 15 4 15 11 0 14 5 10 12 -4 7 -3 8 4 4 7 -4 23
4 36 19 15 16 30 24 37 19 7 -4 9 -3 5 4 -8 13 -1 17 96 63 43 20 74 39 70 43
-4 4 -2 7 3 5 6 -1 19 1 30 5 11 4 34 13 50 19 17 7 36 10 44 9 8 -2 10 1 6 8
-5 9 -1 10 14 5 12 -4 21 -2 21 4 0 6 7 11 16 11 9 0 12 -5 8 -12 -4 -7 -4
-10 0 -6 4 3 8 10 8 15 1 13 280 68 303 59 7 -2 27 -1 46 3 41 9 309 9 304 0z
m115 -98 c174 -33 420 -115 412 -138 -1 -4 -43 -113 -94 -241 l-91 -232 -36 7
c-49 9 -862 9 -932 -1 -54 -7 -57 -6 -62 16 -6 26 -124 338 -156 412 -12 27
-20 50 -19 51 2 2 44 19 94 38 103 41 254 80 364 96 41 6 86 13 100 15 59 11
321 -4 420 -23z m-1025 -173 c19 -62 179 -475 185 -482 5 -5 241 -9 555 -9
450 0 549 3 560 14 9 11 144 346 189 472 6 18 7 18 39 -2 140 -88 270 -211
346 -327 l48 -74 -24 -68 -24 -68 -187 123 c-113 76 -194 123 -206 121 -22 -3
-33 -29 -92 -200 l-36 -108 -247 -2 c-444 -3 -543 -3 -760 2 l-214 5 -52 150
c-42 121 -56 151 -73 153 -16 3 -212 -118 -355 -220 -16 -11 -30 -18 -32 -16
-3 2 -16 30 -30 62 l-25 58 34 56 c39 64 150 193 210 244 50 42 169 127 179
128 4 0 9 -6 12 -12z m64 -68 c0 -8 -6 0 -14 19 -8 18 -15 36 -15 40 1 13 29
-45 29 -59z m1393 48 c-7 -7 -12 -20 -12 -30 0 -10 -4 -18 -9 -18 -6 0 -6 12
0 30 6 17 16 30 22 30 7 0 7 -4 -1 -12z m-1357 -138 c3 -5 1 -10 -4 -10 -6 0
-11 5 -11 10 0 6 2 10 4 10 3 0 8 -4 11 -10z m1294 -28 c-6 -18 -14 -32 -19
-32 -4 0 0 16 8 35 19 42 26 40 11 -3z m-1279 -20 c0 -15 -2 -15 -10 -2 -13
20 -13 33 0 25 6 -3 10 -14 10 -23z m1246 -63 c-9 -19 -15 -29 -16 -22 0 15
22 64 27 60 2 -2 -3 -19 -11 -38z m-1218 -14 c-3 -3 -9 2 -12 12 -6 14 -5 15
5 6 7 -7 10 -15 7 -18z m1196 -31 c3 -8 2 -12 -4 -9 -6 3 -10 10 -10 16 0 14
7 11 14 -7z m-1323 -42 c-7 -2 -19 -1 -29 3 -14 5 -14 7 -2 15 9 5 20 4 28 -3
10 -8 11 -12 3 -15z m1499 17 c0 -5 4 -8 8 -5 5 3 9 -1 9 -9 0 -18 -9 -19 -25
-3 -9 9 -12 9 -12 0 0 -6 -6 -9 -13 -6 -9 3 -13 -3 -12 -18 3 -33 -5 -48 -24
-48 -14 0 -14 2 -1 10 8 5 11 10 6 10 -5 0 -3 7 4 15 7 9 10 18 7 22 -4 3 -2
14 4 24 10 20 49 26 49 8z m-199 -42 c-11 -19 -18 -37 -14 -40 3 -4 0 -7 -7
-7 -7 0 -11 -3 -7 -6 3 -4 -1 -13 -9 -21 -8 -9 -18 -12 -22 -9 -3 4 -2 10 4
14 6 4 24 30 40 59 15 29 30 50 32 48 3 -2 -5 -19 -17 -38z m-1359 26 c-6 -2
-9 -10 -5 -16 3 -7 2 -9 -2 -4 -5 4 -17 0 -27 -10 -10 -9 -18 -13 -18 -8 0 11
41 45 54 44 6 0 6 -3 -2 -6z m1629 -29 c2 2 15 -8 29 -22 l25 -25 -42 23 c-23
13 -45 30 -48 39 -5 12 -2 12 13 -2 10 -9 21 -15 23 -13z m-1554 -10 c2 -13 1
-15 -4 -4 -3 8 -11 19 -17 23 -7 6 -6 7 4 4 8 -2 16 -12 17 -23z m3 -122 c44
-133 47 -137 80 -149 26 -9 192 -12 647 -10 598 2 613 2 631 22 11 11 38 76
62 145 23 69 44 127 46 129 2 2 80 -47 174 -110 117 -77 169 -117 165 -127 -7
-18 -21 -155 -39 -372 -8 -96 -20 -236 -27 -311 l-12 -135 81 -150 c44 -82 96
-178 116 -213 l36 -63 -31 -37 c-18 -20 -113 -121 -213 -226 -297 -311 -267
-269 -309 -430 -20 -77 -55 -212 -78 -300 -23 -88 -74 -288 -113 -445 -70
-280 -72 -284 -104 -303 -101 -59 -553 -75 -748 -26 -86 22 -88 26 -158 314
-51 209 -168 677 -217 866 -5 20 -24 51 -41 70 -18 19 -134 140 -258 268 -124
128 -226 237 -228 241 -2 5 10 30 26 57 94 157 213 385 208 401 -3 9 -16 152
-30 317 -22 254 -36 387 -49 477 -1 13 45 49 163 128 91 60 167 110 170 110 3
0 25 -62 50 -138z m-146 119 c3 -5 -1 -11 -9 -14 -9 -4 -12 -1 -8 9 6 16 10
17 17 5z m-44 -41 c-8 -5 -19 -10 -25 -10 -5 0 -3 5 5 10 8 5 20 10 25 10 6 0
3 -5 -5 -10z m403 -23 c4 3 7 4 7 0 0 -3 -4 -8 -9 -11 -9 -6 -51 26 -51 39 0
5 10 -1 23 -13 13 -12 27 -19 30 -15z m1428 16 c13 -17 13 -17 -6 -3 -11 8
-22 16 -24 17 -2 2 0 3 6 3 6 0 17 -8 24 -17z m-231 -18 c-7 -9 -15 -13 -18
-10 -3 2 1 11 8 20 7 9 15 13 18 10 3 -2 -1 -11 -8 -20z m-1650 -5 c-6 -11
-15 -18 -20 -15 -4 3 -10 1 -12 -3 -3 -8 -125 -92 -133 -92 -3 0 -2 7 1 15 3
8 9 13 12 12 11 -3 82 42 82 52 0 10 29 22 43 18 5 -1 13 6 18 16 14 24 22 21
9 -3z m680 10 c0 -5 -5 -10 -11 -10 -5 0 -7 5 -4 10 3 6 8 10 11 10 2 0 4 -4
4 -10z m228 3 c-10 -2 -26 -2 -35 0 -10 3 -2 5 17 5 19 0 27 -2 18 -5z m367
-3 c-3 -5 -14 -10 -23 -9 -14 0 -13 2 3 9 27 11 27 11 20 0z m115 0 c0 -5 -5
-10 -11 -10 -5 0 -7 5 -4 10 3 6 8 10 11 10 2 0 4 -4 4 -10z m-1615 -41 c3
-25 2 -30 -5 -19 -10 16 -14 67 -4 58 3 -3 7 -21 9 -39z m1562 35 c-3 -3 -12
-4 -19 -1 -8 3 -5 6 6 6 11 1 17 -2 13 -5z m106 -1 c-7 -2 -21 -2 -30 0 -10 3
-4 5 12 5 17 0 24 -2 18 -5z m483 -20 c-7 -7 -26 7 -26 19 0 6 6 6 15 -2 9 -7
13 -15 11 -17z m-2136 -143 c10 -30 21 -95 25 -145 3 -49 17 -216 31 -369 l24
-279 -85 -154 c-47 -85 -85 -158 -85 -164 0 -5 -4 -9 -8 -9 -15 0 -47 509 -46
730 1 231 9 289 61 448 l28 83 18 -43 c10 -24 27 -68 37 -98z m481 117 c-10
-9 -11 -8 -5 6 3 10 9 15 12 12 3 -3 0 -11 -7 -18z m1369 13 c0 -5 -2 -10 -4
-10 -3 0 -8 5 -11 10 -3 6 -1 10 4 10 6 0 11 -4 11 -10z m346 -21 c3 -6 -5 -4
-18 5 -14 9 -28 13 -33 9 -4 -5 -5 -2 -1 5 8 13 39 2 52 -19z m229 -114 c40
-139 48 -236 42 -495 -4 -186 -28 -550 -40 -617 -1 -7 -43 64 -93 157 l-91
168 13 149 c7 81 22 252 33 379 18 206 24 239 53 319 l32 89 13 -32 c7 -18 24
-70 38 -117z m-598 83 c-3 -7 -5 -2 -5 12 0 14 2 19 5 13 2 -7 2 -19 0 -25z
m-1324 -14 c-2 -7 12 -28 33 -48 20 -20 32 -36 26 -36 -7 0 -12 5 -12 11 0 6
-7 9 -15 5 -14 -5 -30 20 -50 84 -6 20 -5 21 8 9 8 -8 13 -19 10 -25z m1747
16 c0 -5 -4 -10 -10 -10 -5 0 -10 5 -10 10 0 6 5 10 10 10 6 0 10 -4 10 -10z
m-2218 -19 c0 -3 2 -17 3 -31 2 -14 5 -43 9 -65 5 -36 5 -37 -4 -10 -5 17 -11
39 -13 50 -2 11 -8 30 -15 42 -7 12 -12 24 -12 27 0 7 30 -5 32 -13z m2268 -3
c0 7 4 12 9 12 13 0 -7 -60 -26 -80 -12 -13 -13 -11 -4 13 14 36 14 40 -1 31
-7 -4 -8 -3 -4 4 4 7 1 12 -8 12 -17 0 -21 12 -9 23 3 4 15 0 25 -10 11 -9 18
-11 18 -5z m-497 -49 c3 -12 3 -18 0 -15 -3 3 -14 1 -24 -5 -13 -6 -19 -6 -19
1 0 5 7 10 15 10 8 0 14 3 14 8 -5 27 7 29 14 1z m-1187 -27 c-10 -2 -22 0
-28 6 -6 6 0 7 19 4 21 -5 23 -7 9 -10z m232 1 c-27 -2 -69 -2 -95 0 -27 2 -5
3 47 3 52 0 74 -1 48 -3z m135 0 c-7 -2 -21 -2 -30 0 -10 3 -4 5 12 5 17 0 24
-2 18 -5z m117 3 c0 -2 -7 -6 -15 -10 -8 -3 -15 -1 -15 4 0 6 7 10 15 10 8 0
15 -2 15 -4z m104 -7 c3 -3 -12 -5 -34 -4 -22 1 -42 4 -45 7 -3 3 12 5 34 4
22 -1 42 -4 45 -7z m279 4 c-29 -2 -77 -2 -105 0 -29 2 -6 3 52 3 58 0 81 -1
53 -3z m110 0 c-7 -2 -21 -2 -30 0 -10 3 -4 5 12 5 17 0 24 -2 18 -5z m60 0
c-7 -2 -19 -2 -25 0 -7 3 -2 5 12 5 14 0 19 -2 13 -5z m80 0 c-13 -2 -33 -2
-45 0 -13 2 -3 4 22 4 25 0 35 -2 23 -4z m547 -53 c0 -5 -2 -10 -4 -10 -3 0
-8 5 -11 10 -3 6 -1 10 4 10 6 0 11 -4 11 -10z m-2223 -82 c-2 -13 -4 -3 -4
22 0 25 2 35 4 23 2 -13 2 -33 0 -45z m2208 -77 c3 -5 1 -12 -5 -16 -5 -3 -10
1 -10 9 0 18 6 21 15 7z m-2198 -43 c-3 -7 -5 -2 -5 12 0 14 2 19 5 13 2 -7 2
-19 0 -25z m2191 -64 c-3 -14 -5 -12 -10 9 -3 19 -2 25 4 19 6 -6 8 -18 6 -28z
m-2181 -36 c-2 -13 -4 -5 -4 17 -1 22 1 32 4 23 2 -10 2 -28 0 -40z m2169 -24
c-6 -19 -12 -28 -14 -20 -3 13 14 56 22 56 2 0 -2 -16 -8 -36z m-2159 -61 c-3
-10 -5 -4 -5 12 0 17 2 24 5 18 2 -7 2 -21 0 -30z m7 -103 c3 -37 2 -47 -4
-30 -8 26 -13 96 -6 89 3 -3 7 -29 10 -59z m2143 8 c-3 -8 -6 -5 -6 6 -1 11 2
17 5 13 3 -3 4 -12 1 -19z m3 -38 c0 -5 -4 -10 -10 -10 -5 0 -10 5 -10 10 0 6
5 10 10 10 6 0 10 -4 10 -10z m-2137 -70 c-7 -28 -13 -25 -13 6 0 14 4 23 9
20 5 -3 7 -15 4 -26z m2127 -22 c0 -19 -16 -5 -17 14 -2 18 0 20 7 8 5 -8 10
-18 10 -22z m-2123 -30 c-3 -8 -6 -5 -6 6 -1 11 2 17 5 13 3 -3 4 -12 1 -19z
m2113 -73 c0 -14 -2 -25 -4 -25 -2 0 -6 11 -8 25 -3 14 -1 25 3 25 5 0 9 -11
9 -25z m-2105 -25 c-3 -5 -12 -10 -18 -10 -7 0 -6 4 3 10 19 12 23 12 15 0z
m2139 -55 c13 -33 13 -37 1 -21 -8 11 -15 26 -15 33 0 7 -5 13 -11 13 -5 0 -7
5 -4 11 9 13 10 12 29 -36z m-2170 -1 c-22 -32 -25 -30 -13 6 6 16 15 27 20
24 5 -3 2 -16 -7 -30z m-39 -71 c-8 -16 -19 -35 -24 -43 -4 -8 -13 -24 -20
-35 -6 -11 -17 -32 -24 -48 -7 -15 -16 -24 -20 -21 -3 3 1 16 9 28 8 13 11 26
7 31 -5 4 -3 5 4 1 7 -4 14 3 19 16 8 26 52 98 59 98 3 0 -1 -12 -10 -27z
m2245 -8 c0 -5 -5 -3 -10 5 -5 8 -10 20 -10 25 0 6 5 3 10 -5 5 -8 10 -19 10
-25z m28 -38 c2 -9 -1 -17 -7 -17 -6 0 -7 7 -4 17 4 11 3 14 -5 9 -7 -4 -12
-2 -12 4 0 18 25 6 28 -13z m20 -39 c-2 -3 6 -16 17 -29 l20 -24 -22 19 c-13
10 -20 22 -18 26 3 5 0 11 -5 13 -7 4 -6 5 0 4 7 -2 10 -5 8 -9z m-2117 -693
l114 -121 48 -189 c37 -148 147 -576 202 -785 6 -22 4 -21 -21 10 -16 19 -60
69 -99 110 -92 98 -285 307 -363 393 -37 41 -66 83 -71 105 -6 20 -31 196 -56
390 -25 195 -48 365 -51 379 -7 25 14 5 297 -292z m203 -961 c5 -14 4 -15 -9
-4 -17 14 -19 20 -6 20 5 0 12 -7 15 -16z m295 -295 l15 -24 -25 23 c-14 12
-29 19 -34 15 -4 -5 -5 -2 -1 5 10 18 26 11 45 -19z"/>
<path d="M1363 3995 c0 -8 4 -12 9 -9 5 3 6 10 3 15 -9 13 -12 11 -12 -6z"/>
<path d="M1334 3954 c-18 -14 -18 -14 6 -3 31 14 36 19 24 19 -6 0 -19 -7 -30
-16z"/>
<path d="M1065 3711 c-6 -11 20 -33 28 -24 4 3 7 10 7 14 0 11 -29 19 -35 10z"/>
<path d="M1050 3685 c0 -5 5 -17 10 -25 5 -8 10 -10 10 -5 0 6 -5 17 -10 25
-5 8 -10 11 -10 5z"/>
<path d="M964 2149 c-3 -6 -2 -15 3 -20 5 -5 9 -1 9 11 0 23 -2 24 -12 9z"/>
<path d="M1050 1991 c0 -6 4 -13 10 -16 6 -3 7 1 4 9 -7 18 -14 21 -14 7z"/>
<path d="M3290 1861 c0 -6 4 -13 10 -16 6 -3 7 1 4 9 -7 18 -14 21 -14 7z"/>
<path d="M972 1840 c0 -14 2 -19 5 -12 2 6 2 18 0 25 -3 6 -5 1 -5 -13z"/>
<path d="M1305 1730 c10 -11 20 -20 23 -20 3 0 -3 9 -13 20 -10 11 -20 20 -23
20 -3 0 3 -9 13 -20z"/>
<path d="M3393 1735 c-12 -9 -55 -34 -95 -57 -40 -22 -77 -47 -81 -55 -5 -7
-12 -11 -17 -8 -5 3 -11 1 -15 -5 -3 -5 3 -10 13 -10 11 0 22 6 25 14 3 8 25
24 49 35 44 21 141 80 154 94 13 13 -11 7 -33 -8z"/>
<path d="M1370 1661 c0 -6 4 -13 10 -16 6 -3 7 1 4 9 -7 18 -14 21 -14 7z"/>
<path d="M3242 1611 c-7 -4 31 -9 85 -10 54 -1 95 0 92 4 -9 9 -163 15 -177 6z"/>
<path d="M3189 1573 c-4 -49 2 -498 6 -502 3 -2 5 113 5 257 0 144 -2 262 -5
262 -3 0 -6 -8 -6 -17z"/>
<path d="M3225 1581 c3 -6 18 -16 33 -24 15 -7 53 -28 85 -46 31 -18 57 -30
57 -27 0 3 -21 17 -47 32 -27 15 -65 37 -85 50 -40 26 -53 30 -43 15z"/>
<path d="M3501 1574 c0 -11 3 -14 6 -6 3 7 2 16 -1 19 -3 4 -6 -2 -5 -13z"/>
<path d="M3055 1330 c-4 -6 17 -10 54 -10 34 0 61 4 61 10 0 6 -24 10 -54 10
-30 0 -58 -4 -61 -10z"/>
<path d="M3210 1330 c0 -6 33 -10 80 -10 47 0 80 4 80 10 0 6 -33 10 -80 10
-47 0 -80 -4 -80 -10z"/>
<path d="M3010 1155 c0 -4 48 -33 191 -117 29 -18 29 -17 19 1 -8 16 -6 21 10
26 11 3 20 11 20 16 0 6 -13 3 -29 -7 -28 -16 -29 -16 -115 35 -86 51 -96 55
-96 46z"/>
<path d="M2984 1051 c7 -11 111 -9 122 2 4 4 -23 7 -60 7 -37 0 -65 -4 -62 -9z"/>
<path d="M1140 1020 c0 -5 5 -10 11 -10 5 0 7 5 4 10 -3 6 -8 10 -11 10 -2 0
-4 -4 -4 -10z"/>
<path d="M3042 969 c-56 -34 -102 -65 -102 -70 0 -5 28 8 63 29 34 22 83 51
110 66 45 26 56 36 39 36 -4 0 -54 -28 -110 -61z"/>
<path d="M1181 994 c0 -11 3 -14 6 -6 3 7 2 16 -1 19 -3 4 -6 -2 -5 -13z"/>
<path d="M1621 944 c0 -11 3 -14 6 -6 3 7 2 16 -1 19 -3 4 -6 -2 -5 -13z"/>
<path d="M1240 946 c0 -2 7 -7 16 -10 8 -3 12 -2 9 4 -6 10 -25 14 -25 6z"/>
<path d="M1276 912 c-3 -5 1 -9 9 -9 8 0 12 4 9 9 -3 4 -7 8 -9 8 -2 0 -6 -4
-9 -8z"/>
<path d="M3050 890 c-9 -6 -10 -10 -3 -10 6 0 15 5 18 10 8 12 4 12 -15 0z"/>
<path d="M1325 860 c3 -5 8 -10 11 -10 2 0 4 5 4 10 0 6 -5 10 -11 10 -5 0 -7
-4 -4 -10z"/>
<path d="M1651 854 c0 -11 3 -14 6 -6 3 7 2 16 -1 19 -3 4 -6 -2 -5 -13z"/>
<path d="M2914 772 c5 -9 73 -8 82 0 2 3 -16 6 -42 6 -25 1 -43 -2 -40 -6z"/>
<path d="M3049 713 c-13 -16 -12 -17 4 -4 16 13 21 21 13 21 -2 0 -10 -8 -17
-17z"/>
<path d="M2900 695 c-13 -14 -22 -27 -19 -29 2 -2 14 10 27 25 29 36 24 38 -8
4z"/>
<path d="M2766 577 c3 -10 9 -15 12 -12 3 3 0 11 -7 18 -10 9 -11 8 -5 -6z"/>
<path d="M2889 557 c7 -7 14 -8 21 -1 6 6 2 10 -12 11 -16 2 -18 -1 -9 -10z"/>
<path d="M2919 543 c-13 -16 -12 -17 4 -4 16 13 21 21 13 21 -2 0 -10 -8 -17
-17z"/>
<path d="M2751 379 c-13 -10 -19 -19 -15 -19 13 1 48 29 43 34 -2 2 -15 -4
-28 -15z"/>
<path d="M1898 4123 c12 -2 30 -2 40 0 9 3 -1 5 -23 4 -22 0 -30 -2 -17 -4z"/>
<path d="M1993 4123 c15 -2 39 -2 55 0 15 2 2 4 -28 4 -30 0 -43 -2 -27 -4z"/>
<path d="M2182 4123 c59 -2 158 -2 220 0 62 1 14 3 -107 3 -121 0 -172 -2
-113 -3z"/>
<path d="M2543 4123 c15 -2 37 -2 50 0 12 2 0 4 -28 4 -27 0 -38 -2 -22 -4z"/>
<path d="M1834 4088 c16 -12 53 -36 82 -53 30 -16 108 -63 174 -102 66 -40
126 -74 132 -75 7 -2 -117 -5 -277 -8 l-290 -5 289 -3 290 -2 -140 -82 c-76
-44 -160 -93 -185 -107 -25 -14 -57 -34 -70 -44 -47 -35 11 -8 117 55 234 140
279 165 288 160 5 -3 6 0 2 6 -12 19 13 14 36 -8 11 -10 35 -26 52 -35 17 -9
72 -41 121 -70 164 -98 216 -127 220 -123 4 4 -227 145 -337 207 -32 18 -62
40 -67 49 -5 9 -13 14 -16 10 -4 -4 -37 12 -73 35 -37 24 -78 48 -92 55 -14 7
-37 20 -52 30 -31 20 -123 74 -188 109 -45 25 -45 25 -16 1z"/>
<path d="M2619 4072 c-35 -21 -120 -71 -189 -112 -144 -84 -135 -78 -127 -86
3 -3 30 10 59 29 52 33 141 86 197 118 44 24 131 81 131 85 0 7 -5 4 -71 -34z"/>
<path d="M2253 4045 c0 -33 2 -45 4 -27 2 18 2 45 0 60 -2 15 -4 0 -4 -33z"/>
<path d="M1646 4049 c-32 -17 -56 -33 -53 -36 6 -5 117 55 117 63 0 6 1 6 -64
-27z"/>
<path d="M2710 4069 c0 -5 5 -7 10 -4 6 3 10 8 10 11 0 2 -4 4 -10 4 -5 0 -10
-5 -10 -11z"/>
<path d="M2840 4045 c14 -8 30 -14 35 -14 6 0 -1 6 -15 14 -14 8 -29 14 -35
14 -5 0 1 -6 15 -14z"/>
<path d="M1783 3940 c0 -47 2 -66 4 -42 2 23 2 61 0 85 -2 23 -4 4 -4 -43z"/>
<path d="M2711 3941 c-1 -62 2 -82 10 -74 8 8 8 32 1 85 l-9 73 -2 -84z"/>
<path d="M2249 3973 c-6 -36 -4 -93 3 -93 4 0 8 23 8 50 0 28 -2 50 -5 50 -3
0 -6 -3 -6 -7z"/>
<path d="M2498 3843 l212 -3 0 -125 c0 -69 4 -125 8 -125 5 0 8 55 7 123 l-1
122 65 6 c36 3 -62 5 -219 5 -227 0 -241 -1 -72 -3z"/>
<path d="M1771 3715 c-2 -76 1 -115 8 -115 7 0 11 40 11 115 0 63 -4 115 -8
115 -5 0 -10 -52 -11 -115z"/>
<path d="M2250 3808 c-9 -176 -9 -198 0 -198 8 0 10 31 8 95 -2 57 1 97 7 99
6 3 4 5 -2 5 -7 1 -13 0 -13 -1z"/>
<path d="M2430 3766 c0 -2 7 -7 16 -10 8 -3 12 -2 9 4 -6 10 -25 14 -25 6z"/>
<path d="M1465 3945 c-16 -7 -23 -14 -14 -14 8 -1 24 6 35 14 24 18 18 18 -21
0z"/>
<path d="M3010 3955 c0 -9 118 -84 124 -78 3 4 6 1 6 -5 0 -7 5 -12 11 -12 16
0 0 20 -24 31 -12 5 -43 23 -69 39 -27 16 -48 27 -48 25z"/>
<path d="M1420 3922 c0 -5 -13 -15 -30 -22 -16 -7 -30 -17 -30 -22 0 -7 47 15
78 38 2 1 -1 5 -7 9 -6 3 -11 2 -11 -3z"/>
<path d="M1324 3858 l-19 -23 23 19 c21 18 27 26 19 26 -2 0 -12 -10 -23 -22z"/>
<path d="M1393 3843 c26 -2 68 -2 95 0 26 2 4 3 -48 3 -52 0 -74 -1 -47 -3z"/>
<path d="M3008 3843 c29 -2 74 -2 100 0 26 2 2 3 -53 3 -55 0 -76 -1 -47 -3z"/>
<path d="M1350 3821 c0 -5 24 -23 53 -38 28 -16 69 -39 90 -51 21 -13 36 -18
32 -12 -3 5 -27 22 -53 36 -26 15 -64 37 -84 51 -21 13 -38 19 -38 14z"/>
<path d="M3068 3782 c-42 -26 -75 -48 -73 -50 2 -3 36 14 75 37 40 22 76 41
81 41 5 0 9 5 9 10 0 16 -11 12 -92 -38z"/>
<path d="M1303 3750 c0 -30 2 -43 4 -27 2 15 2 39 0 55 -2 15 -4 2 -4 -28z"/>
<path d="M3189 3753 c0 -27 -1 -69 -2 -95 -2 -27 0 -48 4 -48 3 0 7 43 8 95 1
52 0 95 -4 95 -3 0 -5 -21 -6 -47z"/>
<path d="M1380 3702 c0 -5 7 -15 15 -22 8 -7 15 -9 15 -6 0 4 -7 14 -15 22 -8
9 -15 11 -15 6z"/>
<path d="M1565 3701 c-3 -6 4 -15 15 -21 11 -6 17 -16 14 -22 -5 -7 -2 -8 6
-3 10 6 8 12 -8 25 -12 10 -18 20 -15 24 4 3 4 6 0 6 -3 0 -8 -4 -12 -9z"/>
<path d="M2910 3685 c-7 -8 -9 -15 -6 -15 4 0 14 7 22 15 9 8 11 15 6 15 -5 0
-15 -7 -22 -15z"/>
<path d="M3259 3573 c-13 -16 -12 -17 4 -4 9 7 17 15 17 17 0 8 -8 3 -21 -13z"/>
<path d="M1138 3563 c17 -2 47 -2 65 0 17 2 3 4 -33 4 -36 0 -50 -2 -32 -4z"/>
<path d="M1618 3563 c6 -2 18 -2 25 0 6 3 1 5 -13 5 -14 0 -19 -2 -12 -5z"/>
<path d="M2863 3563 c9 -2 23 -2 30 0 6 3 -1 5 -18 5 -16 0 -22 -2 -12 -5z"/>
<path d="M3303 3563 c15 -2 37 -2 50 0 12 2 0 4 -28 4 -27 0 -38 -2 -22 -4z"/>
<path d="M3330 3529 c0 -5 5 -7 10 -4 6 3 10 8 10 11 0 2 -4 4 -10 4 -5 0 -10
-5 -10 -11z"/>
<path d="M1645 3490 c-10 -11 -14 -20 -9 -20 12 1 44 25 44 34 0 12 -17 6 -35
-14z"/>
<path d="M2824 3495 c11 -8 22 -12 25 -9 6 6 -19 24 -34 24 -5 -1 -1 -7 9 -15z"/>
<path d="M1920 3478 c8 -9 42 -31 75 -49 33 -17 53 -25 45 -17 -8 9 -42 31
-75 49 -33 17 -53 25 -45 17z"/>
<path d="M2517 3452 c-37 -20 -63 -38 -58 -40 6 -2 41 15 78 37 85 51 71 53
-20 3z"/>
<path d="M1779 3473 c0 -5 -2 -18 -5 -30 -2 -12 1 -25 6 -28 6 -4 10 9 10 29
0 20 -2 36 -5 36 -3 0 -5 -3 -6 -7z"/>
<path d="M2240 3444 c0 -21 4 -33 10 -29 6 3 10 19 10 36 0 16 -4 29 -10 29
-5 0 -10 -16 -10 -36z"/>
<path d="M2710 3446 c0 -20 5 -36 10 -36 6 0 10 13 10 29 0 17 -4 33 -10 36
-6 4 -10 -8 -10 -29z"/>
<path d="M3019 3569 c-10 -6 -7 -9 14 -9 29 0 35 5 14 13 -8 3 -20 1 -28 -4z"/>
<path d="M1453 3563 c9 -2 23 -2 30 0 6 3 -1 5 -18 5 -16 0 -22 -2 -12 -5z"/>
<path d="M1481 3530 c14 -31 19 -36 19 -24 0 6 -7 19 -16 30 -14 18 -14 18 -3
-6z"/>
<path d="M2993 3503 c-3 -10 -8 -22 -11 -27 -3 -5 0 -6 5 -3 11 7 25 47 17 47
-3 0 -7 -8 -11 -17z"/>
<path d="M1353 3475 c0 -8 4 -12 9 -9 5 3 6 10 3 15 -9 13 -12 11 -12 -6z"/>
<path d="M1307 3473 c-11 -11 -8 -103 4 -103 6 0 9 22 8 55 -1 30 -3 55 -4 55
-1 0 -5 -3 -8 -7z"/>
<path d="M3192 3394 c2 -77 2 -77 5 -16 3 45 7 61 16 55 7 -4 5 2 -3 13 -8 10
-16 21 -17 23 -2 2 -2 -31 -1 -75z"/>
<path d="M1465 3388 c-96 -59 -140 -90 -125 -86 23 5 190 102 190 111 0 12
-13 7 -65 -25z"/>
<path d="M2980 3400 c14 -11 29 -20 33 -20 4 0 32 -15 60 -33 74 -48 101 -61
92 -48 -3 7 -31 26 -61 44 -30 18 -72 42 -92 54 -46 28 -66 30 -32 3z"/>
<path d="M3235 3380 c-3 -5 -2 -10 4 -10 5 0 13 5 16 10 3 6 2 10 -4 10 -5 0
-13 -4 -16 -10z"/>
<path d="M1190 3350 c0 -5 23 -21 51 -36 28 -14 48 -29 43 -33 -5 -5 -27 -20
-49 -35 -22 -14 -35 -26 -29 -26 6 0 28 12 49 26 27 18 45 24 64 19 17 -4 21
-2 13 3 -8 5 -13 13 -13 17 1 5 -5 10 -14 11 -8 1 -37 16 -65 33 -27 17 -50
26 -50 21z"/>
<path d="M1270 3346 c0 -8 4 -17 9 -20 5 -4 7 3 4 14 -6 23 -13 26 -13 6z"/>
<path d="M1300 3351 c0 -5 5 -13 10 -16 6 -3 10 -2 10 4 0 5 -4 13 -10 16 -5
3 -10 2 -10 -4z"/>
<path d="M3289 3352 c-4 -8 -104 -68 -344 -205 -38 -22 -82 -48 -97 -59 -16
-11 -33 -16 -39 -12 -7 4 -9 3 -5 -4 3 -6 -2 -13 -13 -17 -11 -3 -25 -13 -33
-22 -9 -12 -2 -10 30 6 49 25 334 195 374 222 30 21 42 24 32 8 -4 -6 -6 -67
-6 -135 l0 -124 -213 0 c-117 0 -221 -3 -231 -7 -11 -4 -15 -3 -10 5 3 6 2 13
-3 16 -5 4 -8 14 -6 24 2 9 4 65 4 125 l1 107 66 0 c63 0 65 -1 58 -22 -3 -13
-12 -30 -18 -38 -22 -29 -97 -172 -93 -177 4 -3 74 118 109 189 l23 47 125 3
c69 2 -64 4 -295 4 -231 -1 -324 -2 -207 -3 l212 -3 0 -123 c0 -82 4 -127 12
-135 18 -18 0 -14 -30 7 -38 27 -334 202 -383 226 -23 12 -40 24 -40 28 1 5
-144 8 -320 7 -297 0 -322 1 -335 17 -13 16 -14 16 -8 1 5 -16 -7 -18 -133
-21 l-138 -3 148 -2 c91 -1 147 -6 147 -12 0 -14 123 -231 128 -226 4 4 -27
63 -91 178 -15 26 -27 49 -27 52 0 3 30 6 68 6 l67 0 -3 -103 c-2 -56 1 -113
7 -127 7 -19 10 7 10 103 l1 127 222 0 222 0 -130 -76 c-71 -41 -147 -86 -169
-98 -22 -13 -63 -37 -91 -54 -60 -37 -66 -38 -108 -13 -224 134 -378 222 -382
218 -3 -3 12 -15 33 -27 56 -32 59 -34 173 -104 58 -35 126 -74 153 -87 26
-13 47 -25 47 -28 0 -4 -101 -5 -225 -3 l-225 3 5 22 c3 12 1 67 -4 122 l-8
100 -2 -122 -1 -122 -42 -4 -43 -4 43 -1 42 -2 0 -126 c0 -79 4 -123 10 -119
6 3 9 55 7 126 l-2 119 218 0 c119 0 217 -2 217 -4 0 -3 -33 -23 -72 -45 -40
-23 -140 -81 -222 -130 l-149 -88 -36 19 -36 20 28 -24 28 -25 -23 -16 c-13
-9 -18 -16 -11 -16 6 -1 18 5 26 13 8 9 24 12 36 9 16 -4 20 -2 16 9 -4 9 1
18 12 22 19 6 61 30 185 106 40 25 77 47 83 49 16 6 129 74 145 87 13 11 15
-4 15 -122 l0 -134 -78 0 -77 0 -24 54 c-13 29 -29 57 -35 60 -18 11 -13 -3
20 -60 l30 -53 -138 -4 c-103 -2 -82 -3 82 -5 l220 -2 0 -133 0 -133 -212 128
c-117 70 -215 128 -218 128 -17 0 0 -19 26 -30 17 -7 56 -30 87 -50 32 -20
110 -67 175 -104 64 -37 119 -71 122 -76 6 -10 -134 -92 -146 -85 -5 4 -8 2
-7 -4 3 -10 -275 -181 -293 -181 -6 0 -47 22 -92 49 -75 46 -129 72 -117 58 3
-3 46 -30 97 -59 50 -30 88 -59 85 -64 -9 -13 -78 -56 -131 -83 -23 -12 -41
-25 -38 -27 6 -6 143 70 168 92 8 8 23 14 31 14 9 0 18 4 20 9 2 4 46 33 98
63 52 30 151 88 220 129 69 41 131 74 138 75 6 1 211 2 454 3 243 0 439 4 435
7 -3 3 -62 5 -131 5 -69 -1 -126 1 -126 5 0 4 14 29 31 56 16 28 28 52 25 55
-5 5 -66 -96 -66 -109 0 -5 -34 -8 -75 -8 l-75 0 0 126 c0 75 -4 123 -9 119
-6 -3 -9 -59 -8 -125 l2 -120 -77 0 c-45 0 -78 4 -78 10 0 14 -61 112 -67 107
-2 -3 10 -28 27 -56 16 -29 30 -54 30 -57 0 -2 -64 -3 -142 -2 l-143 3 -3 133
-3 132 73 0 73 0 36 -68 36 -68 -51 -27 c-74 -40 -163 -97 -150 -97 6 0 107
57 225 128 l214 127 233 3 232 3 0 -125 c0 -72 4 -126 9 -126 6 0 9 52 8 125
l-2 125 224 0 225 0 -115 -66 c-126 -72 -187 -108 -269 -159 -30 -19 -60 -34
-66 -35 -10 0 -70 33 -214 118 -12 7 -9 19 19 73 20 39 25 54 12 39 -11 -14
-27 -41 -37 -61 l-16 -37 -104 61 c-58 33 -106 58 -109 56 -2 -3 19 -19 48
-35 52 -31 292 -173 642 -381 105 -62 196 -118 203 -124 14 -11 18 -10 116 45
11 6 42 26 70 44 83 53 38 36 -63 -23 -51 -30 -97 -55 -101 -55 -6 0 -71 37
-351 204 -48 28 -84 55 -81 60 3 5 -2 7 -11 3 -32 -12 -17 3 24 23 23 12 93
53 156 91 63 38 116 69 119 69 2 0 31 18 65 40 63 40 84 44 128 20 12 -6 21
-8 21 -6 0 3 -12 12 -27 20 l-28 15 29 1 c16 0 26 3 23 7 -4 3 -88 5 -187 4
-99 -1 -180 2 -180 6 0 4 9 19 20 33 11 14 20 30 20 37 0 6 6 14 13 16 9 4 9
6 0 6 -6 1 -24 -21 -40 -49 l-28 -50 -75 0 -75 0 3 121 c2 82 -1 125 -9 135
-18 21 0 17 35 -9 17 -13 39 -26 48 -30 10 -3 44 -23 75 -43 32 -21 87 -54
123 -74 36 -21 87 -50 113 -65 26 -15 50 -25 52 -23 3 3 -55 40 -128 83 -72
43 -168 100 -212 126 l-80 49 223 0 224 0 -4 -121 c-2 -66 0 -122 4 -125 5 -3
8 -2 7 3 -1 4 -1 61 0 125 l1 117 48 4 47 3 -47 2 -48 2 0 130 0 131 45 -27
c25 -14 48 -24 51 -22 2 3 -16 16 -41 29 -25 13 -45 27 -45 31 0 4 18 17 39
28 40 20 57 37 48 46 -3 3 -7 1 -8 -4z m-959 -123 c14 -10 44 -28 68 -41 23
-13 88 -51 145 -85 57 -34 115 -67 130 -74 15 -7 27 -16 27 -20 0 -5 -89 -61
-197 -125 -222 -131 -242 -144 -226 -144 6 0 105 56 219 125 114 69 209 125
211 125 1 0 3 -58 3 -130 l0 -130 -70 0 -70 0 45 76 c25 42 45 79 45 82 0 4 9
18 20 32 11 14 20 29 20 33 0 22 -24 -13 -79 -113 l-61 -109 -310 0 -309 0
-32 57 c-75 135 -103 181 -107 177 -2 -2 25 -56 61 -119 l65 -116 -68 0 -69 0
-3 126 c-2 69 0 128 4 131 4 2 27 -9 50 -25 42 -28 310 -187 356 -211 13 -7
26 -11 28 -8 3 3 -41 32 -98 65 -57 33 -152 88 -212 123 l-110 64 440 5 439 6
-446 -1 -446 0 71 42 c39 24 77 41 84 38 7 -3 11 -1 7 4 -3 5 37 35 88 65 93
55 114 65 102 47 -3 -5 -1 -12 4 -15 4 -3 8 3 7 14 -1 13 14 29 44 48 43 28
46 28 75 14 17 -8 41 -23 55 -33z m-124 -525 c-15 -9 -66 -38 -113 -65 -70
-40 -84 -45 -80 -29 3 11 1 18 -3 15 -7 -4 -60 74 -60 89 0 3 64 6 143 6 134
-1 140 -2 113 -16z"/>
<path d="M2242 3144 c-2 -82 1 -124 8 -124 12 0 15 236 3 243 -5 3 -9 -51 -11
-119z"/>
<path d="M2320 3151 c0 -6 4 -13 10 -16 6 -3 7 1 4 9 -7 18 -14 21 -14 7z"/>
<path d="M2347 3099 c4 -13 8 -18 11 -10 2 7 -1 18 -6 23 -8 8 -9 4 -5 -13z"/>
<path d="M2240 2870 c0 -73 4 -120 10 -120 6 0 10 47 10 120 0 73 -4 120 -10
120 -6 0 -10 -47 -10 -120z"/>
<path d="M2450 2911 c0 -5 5 -13 10 -16 6 -3 10 -2 10 4 0 5 -4 13 -10 16 -5
3 -10 2 -10 -4z"/>
<path d="M2405 2881 c-3 -5 -2 -12 3 -15 5 -3 9 1 9 9 0 17 -3 19 -12 6z"/>
<path d="M1985 2819 c-4 -6 -5 -12 -2 -15 2 -3 7 2 10 11 7 17 1 20 -8 4z"/>
<path d="M2380 2770 c-9 -6 -10 -10 -3 -10 6 0 15 5 18 10 8 12 4 12 -15 0z"/>
<path d="M1218 3283 c12 -2 30 -2 40 0 9 3 -1 5 -23 4 -22 0 -30 -2 -17 -4z"/>
<path d="M3248 3283 c12 -2 30 -2 40 0 9 3 -1 5 -23 4 -22 0 -30 -2 -17 -4z"/>
<path d="M1355 3198 c4 -13 11 -27 16 -33 5 -5 4 5 -2 23 -12 36 -24 44 -14
10z"/>
<path d="M2969 3218 c-9 -31 -6 -37 14 -27 32 17 35 22 8 14 -16 -5 -21 -4
-17 4 4 6 5 11 2 11 -3 0 -6 -1 -7 -2z"/>
<path d="M2009 3208 c-6 -21 -5 -37 2 -32 5 3 6 10 3 16 -5 8 -1 9 10 5 10 -4
15 -3 11 3 -5 9 -24 14 -26 8z"/>
<path d="M3133 3188 c-6 -7 -16 -24 -23 -38 -12 -23 -12 -24 3 -11 10 7 17 19
17 26 0 8 6 15 13 18 6 2 9 7 6 11 -3 4 -11 1 -16 -6z"/>
<path d="M1396 3120 c20 -43 24 -47 24 -29 0 8 -10 25 -21 39 l-20 25 17 -35z"/>
<path d="M3067 3076 c-29 -47 -35 -66 -13 -44 16 17 49 78 44 83 -2 2 -16 -15
-31 -39z"/>
<path d="M1428 3075 c-7 -7 14 -55 25 -55 4 0 4 8 -1 18 -5 9 -11 23 -13 30
-3 7 -7 10 -11 7z"/>
<path d="M1496 2938 c16 -32 32 -58 37 -58 5 0 -3 21 -18 48 -41 70 -51 75
-19 10z"/>
<path d="M2983 2925 c-14 -21 -17 -32 -9 -29 13 5 40 53 34 60 -2 1 -13 -13
-25 -31z"/>
<path d="M3230 2755 c-17 -10 -20 -14 -9 -15 9 0 22 7 29 15 15 18 12 18 -20
0z"/>
<path d="M1248 2723 c7 -3 16 -2 19 1 4 3 -2 6 -13 5 -11 0 -14 -3 -6 -6z"/>
<path d="M1630 2703 c0 -5 14 -30 31 -58 17 -28 27 -39 23 -25 -6 26 -42 90
-50 90 -2 0 -4 -3 -4 -7z"/>
<path d="M2832 2658 c-18 -28 -31 -55 -30 -60 2 -5 18 17 36 48 41 72 38 79
-6 12z"/>
<path d="M1300 2576 l0 -125 -52 -4 -53 -3 53 -2 52 -2 0 -126 c0 -72 4 -123
9 -120 5 3 8 60 8 126 l-2 120 220 2 220 3 -217 2 -218 3 -1 113 c-1 61 -1
118 0 125 1 6 -3 12 -9 12 -6 0 -10 -45 -10 -124z"/>
<path d="M2575 2690 c3 -5 8 -10 11 -10 2 0 4 5 4 10 0 6 -5 10 -11 10 -5 0
-7 -4 -4 -10z"/>
<path d="M3190 2675 c-3 -11 -5 -66 -5 -122 l1 -103 -211 -3 -210 -2 213 -3
213 -2 -5 -105 c-3 -57 -2 -114 4 -127 6 -16 9 16 9 104 l1 127 58 4 57 3 -57
2 -57 2 -3 123 c-2 67 -5 113 -8 102z"/>
<path d="M2626 2607 c3 -10 9 -15 12 -12 3 3 0 11 -7 18 -10 9 -11 8 -5 -6z"/>
<path d="M1717 2545 c13 -25 27 -45 29 -45 2 0 -6 20 -18 45 -12 25 -25 45
-29 45 -4 0 4 -20 18 -45z"/>
<path d="M2424 2558 c0 -10 1 -18 3 -18 1 0 7 8 12 18 7 13 6 19 -2 19 -7 0
-13 -9 -13 -19z"/>
<path d="M2783 2565 c-3 -9 -3 -18 -1 -21 3 -3 8 4 11 16 6 23 -1 27 -10 5z"/>
<path d="M2757 2521 c-4 -17 -3 -21 5 -13 5 5 8 16 6 23 -3 8 -7 3 -11 -10z"/>
<path d="M2615 2391 c-244 -146 -356 -211 -367 -211 -7 0 -28 11 -47 24 -20
13 -83 51 -141 84 -58 33 -110 66 -117 71 -7 6 -15 11 -19 11 -4 0 -29 14 -56
31 -28 16 -52 28 -55 26 -2 -3 8 -13 24 -22 l28 -16 -3 -227 -3 -227 155 -98
c86 -53 158 -97 161 -97 3 0 5 85 5 190 0 182 1 190 21 200 11 7 18 14 15 17
-3 3 -16 -1 -29 -10 -24 -16 -24 -18 -26 -189 -1 -95 -3 -173 -4 -174 -1 -1
-63 36 -137 83 l-135 84 -7 217 c-4 119 -5 218 -3 220 1 2 28 -13 58 -32 31
-20 58 -36 60 -36 2 0 52 -29 112 -65 59 -36 112 -65 116 -65 5 0 9 -4 9 -10
0 -5 -10 -6 -22 -2 -13 4 -90 5 -173 2 l-150 -6 170 -4 c94 -2 179 -4 190 -4
11 -1 31 -8 45 -17 115 -75 220 -135 220 -125 0 2 -38 28 -85 57 -47 28 -83
54 -81 57 3 2 42 26 88 53 l83 48 3 -215 c1 -137 6 -213 12 -209 6 4 10 92 10
223 l0 217 86 54 c47 29 86 52 87 50 1 -2 1 -43 -1 -91 l-3 -87 -82 -4 -82 -3
83 -2 82 -2 0 -119 c0 -69 4 -122 10 -126 6 -4 10 38 10 119 0 121 1 125 23
129 l22 4 -22 2 c-22 1 -23 5 -24 94 -1 50 -1 107 0 125 2 19 -2 32 -9 32 -6
0 -10 -11 -8 -24 3 -22 -14 -35 -165 -125 -93 -55 -181 -110 -197 -121 -28
-20 -31 -20 -55 -4 -13 9 -23 20 -20 24 2 4 101 64 220 134 118 71 215 130
215 132 0 10 -20 0 -95 -45z"/>
<path d="M2108 2403 c11 -16 36 -59 57 -98 43 -79 65 -113 65 -101 0 21 -120
226 -132 226 -5 0 -1 -12 10 -27z"/>
<path d="M2240 2314 c0 -74 4 -113 10 -109 6 4 10 53 10 116 0 66 -4 109 -10
109 -6 0 -10 -45 -10 -116z"/>
<path d="M2382 2418 c-7 -7 -12 -15 -12 -18 0 -4 -22 -47 -50 -96 -53 -95 -66
-130 -25 -70 14 20 25 38 25 40 0 2 18 36 40 76 39 71 46 92 22 68z"/>
<path d="M1771 2298 c1 -121 1 -123 -22 -129 l-24 -7 25 -1 25 -1 -3 -125 c-2
-83 0 -125 7 -125 7 0 11 44 11 124 l0 125 28 4 27 4 -27 2 -28 1 0 125 c0 81
-4 125 -11 125 -6 0 -9 -42 -8 -122z"/>
<path d="M1166 2352 c-3 -5 1 -9 9 -9 8 0 12 4 9 9 -3 4 -7 8 -9 8 -2 0 -6 -4
-9 -8z"/>
<path d="M1551 2245 c-85 -52 -159 -100 -165 -107 -7 -9 -9 -61 -6 -163 3 -82
7 -136 9 -120 2 17 2 35 1 40 -1 6 1 63 5 128 l7 117 149 0 148 0 3 -145 3
-145 -128 -76 c-71 -42 -126 -78 -123 -81 5 -6 297 165 307 179 3 5 14 5 25 1
51 -21 436 -258 445 -274 5 -10 16 -16 24 -13 19 8 20 34 1 34 -7 0 -113 60
-235 133 -295 176 -283 169 -289 163 -3 -3 3 -8 12 -12 24 -9 19 -22 -7 -17
l-22 4 4 225 c2 123 -1 224 -5 223 -5 0 -78 -43 -163 -94z m147 -80 c-5 -6
-248 -10 -248 -5 1 3 56 37 123 76 l122 72 3 -70 c2 -39 2 -72 0 -73z m42
-295 c-19 -13 -30 -13 -30 0 0 6 10 10 23 10 18 0 19 -2 7 -10z"/>
<path d="M2435 2320 c-3 -6 1 -7 9 -4 18 7 21 14 7 14 -6 0 -13 -4 -16 -10z"/>
<path d="M2782 2134 l3 -197 158 -95 c86 -52 159 -93 162 -90 3 3 -63 48 -147
100 l-153 95 -3 177 -2 176 150 -91 150 -91 0 -162 c0 -88 5 -168 10 -176 6
-10 10 45 10 166 l0 181 -166 102 c-91 55 -167 101 -170 101 -2 0 -3 -88 -2
-196z"/>
<path d="M2396 2312 c-3 -5 1 -9 9 -9 8 0 12 4 9 9 -3 4 -7 8 -9 8 -2 0 -6 -4
-9 -8z"/>
<path d="M1993 2275 c0 -8 4 -12 9 -9 5 3 6 10 3 15 -9 13 -12 11 -12 -6z"/>
<path d="M3401 2214 c0 -11 3 -14 6 -6 3 7 2 16 -1 19 -3 4 -6 -2 -5 -13z"/>
<path d="M1355 2170 c-18 -8 -17 -9 8 -9 16 -1 26 3 22 9 -3 6 -7 10 -8 9 -1
0 -11 -4 -22 -9z"/>
<path d="M2310 2170 c-24 -8 -23 -8 8 -9 20 -1 31 3 27 9 -3 6 -7 10 -8 9 -1
-1 -13 -5 -27 -9z"/>
<path d="M1098 2163 c34 -2 88 -2 120 0 31 2 3 3 -63 3 -66 0 -92 -1 -57 -3z"/>
<path d="M2458 2163 c12 -2 30 -2 40 0 9 3 -1 5 -23 4 -22 0 -30 -2 -17 -4z"/>
<path d="M2863 2163 c26 -2 67 -2 90 0 23 2 2 3 -48 3 -49 0 -68 -1 -42 -3z"/>
<path d="M3108 2163 c12 -2 30 -2 40 0 9 3 -1 5 -23 4 -22 0 -30 -2 -17 -4z"/>
<path d="M3194 2145 c-15 -14 -23 -25 -18 -25 5 0 9 -51 9 -113 0 -110 0 -112
-23 -113 -36 -2 -39 -14 -3 -14 25 0 32 -4 28 -15 -4 -8 -2 -17 4 -20 5 -4 9
-3 8 2 -4 21 2 33 16 33 8 0 15 4 15 10 0 5 -7 7 -15 4 -13 -5 -15 13 -15 125
l0 132 23 -12 c51 -27 143 -84 149 -93 5 -8 8 -7 8 1 0 14 -45 47 -77 57 -13
4 -23 11 -23 15 0 5 -14 14 -32 22 -27 11 -29 14 -12 20 16 6 16 8 2 8 -9 1
-29 -10 -44 -24z"/>
<path d="M3303 2163 c26 -2 68 -2 95 0 26 2 4 3 -48 3 -52 0 -74 -1 -47 -3z"/>
<path d="M1335 2140 c3 -5 10 -10 16 -10 5 0 9 5 9 10 0 6 -7 10 -16 10 -8 0
-12 -4 -9 -10z"/>
<path d="M2235 2136 c-11 -8 -17 -18 -12 -22 4 -4 7 -2 7 4 0 7 3 12 8 12 4 0
6 -54 4 -120 -2 -66 -7 -118 -11 -116 -4 3 -13 1 -21 -5 -12 -7 -9 -9 10 -9
l25 0 -3 -125 c-2 -83 0 -125 7 -125 7 0 11 44 11 125 l0 125 126 0 c89 0 123
3 118 11 -4 7 -24 9 -50 6 l-44 -5 -45 79 c-25 43 -45 82 -45 86 -1 12 -40 60
-40 49 0 -5 20 -44 45 -87 25 -43 45 -83 45 -89 0 -5 5 -10 10 -10 6 0 10 -6
10 -12 0 -9 -20 -13 -65 -13 l-64 -1 -3 129 c-3 126 -3 128 -23 113z"/>
<path d="M3135 2140 c-3 -5 -2 -10 4 -10 5 0 13 5 16 10 3 6 2 10 -4 10 -5 0
-13 -4 -16 -10z"/>
<path d="M1300 2014 c0 -121 -1 -126 -20 -121 -11 3 -18 1 -14 -4 3 -5 29 -8
57 -8 40 1 45 3 24 8 l-29 6 1 123 c0 70 -4 122 -10 122 -5 0 -9 -53 -9 -126z"/>
<path d="M1425 2095 c35 -28 256 -158 261 -153 2 3 -55 41 -128 84 -134 80
-169 98 -133 69z"/>
<path d="M2080 2074 c-30 -19 -83 -51 -118 -71 -35 -19 -61 -38 -58 -40 7 -8
246 132 246 143 0 10 -21 1 -70 -32z"/>
<path d="M2985 2055 c-38 -24 -90 -55 -114 -70 -24 -14 -41 -28 -39 -31 3 -2
59 28 124 67 136 82 132 79 113 78 -8 0 -45 -20 -84 -44z"/>
<path d="M3300 2016 c0 -2 8 -10 18 -17 15 -13 16 -12 3 4 -13 16 -21 21 -21
13z"/>
<path d="M2606 2002 c-2 -4 4 -8 14 -8 10 0 16 4 14 8 -3 4 -9 8 -14 8 -5 0
-11 -4 -14 -8z"/>
<path d="M2550 1985 c0 -4 41 -29 174 -109 249 -148 318 -188 322 -184 2 3
-27 24 -66 48 -39 24 -67 47 -63 53 3 6 1 7 -6 3 -7 -5 -41 10 -81 33 -38 23
-73 41 -79 41 -18 0 -12 19 9 32 11 7 20 17 20 22 0 4 -11 1 -25 -8 -13 -9
-29 -16 -34 -16 -6 0 -44 20 -84 45 -72 43 -87 50 -87 40z"/>
<path d="M1814 1916 c-10 -8 -17 -17 -14 -19 3 -3 16 3 30 13 29 22 14 27 -16
6z"/>
<path d="M1417 1888 c-6 -4 52 -8 131 -8 89 0 141 4 137 10 -7 11 -249 10
-268 -2z"/>
<path d="M1835 1889 c-14 -5 -4 -7 28 -7 49 1 57 8 15 12 -13 2 -33 -1 -43 -5z"/>
<path d="M2006 1889 c3 -5 37 -9 76 -9 39 0 68 3 64 7 -10 11 -147 12 -140 2z"/>
<path d="M2560 1890 c-11 -7 4 -10 54 -10 38 0 67 3 64 6 -11 11 -103 15 -118
4z"/>
<path d="M2770 1889 c0 -5 14 -9 32 -9 37 0 34 7 -5 14 -15 2 -27 0 -27 -5z"/>
<path d="M2944 1889 c-2 -3 31 -7 74 -8 42 -1 74 1 70 4 -8 8 -139 12 -144 4z"/>
<path d="M2595 1820 c-55 -33 -102 -60 -105 -60 -3 0 -19 25 -35 55 -17 30
-33 55 -37 55 -7 0 34 -82 53 -106 6 -7 -26 -32 -97 -73 -58 -35 -103 -65
-100 -68 2 -3 53 24 113 59 59 36 153 91 208 123 116 68 110 64 104 70 -3 2
-50 -23 -104 -55z"/>
<path d="M1300 1861 c0 -6 4 -12 8 -15 5 -3 9 1 9 9 0 8 -4 15 -9 15 -4 0 -8
-4 -8 -9z"/>
<path d="M2076 1861 c-3 -5 1 -11 9 -14 9 -4 12 -1 8 9 -6 16 -10 17 -17 5z"/>
<path d="M2710 1743 l0 -128 -72 1 -73 2 -27 48 c-15 27 -29 54 -31 59 -3 6
-7 7 -11 4 -4 -4 7 -28 23 -55 17 -26 29 -49 27 -51 -2 -2 -58 -4 -124 -5 -66
0 -126 -5 -134 -9 -7 -5 81 -9 205 -9 l217 0 0 -120 c0 -78 4 -120 11 -120 7
0 9 40 7 120 l-3 120 130 0 c91 0 126 3 118 11 -6 6 -53 9 -127 7 l-116 -3 0
122 c0 70 -4 124 -10 128 -6 4 -10 -39 -10 -122z"/>
<path d="M1771 1739 l1 -121 -121 1 c-72 0 -121 -4 -121 -9 0 -6 50 -10 123
-10 l122 0 -3 -125 c-2 -83 0 -125 7 -125 7 0 11 44 11 125 l0 125 213 1 c116
0 203 4 192 8 -11 5 -107 8 -212 7 l-193 -1 0 123 c0 79 -4 122 -11 122 -6 0
-9 -42 -8 -121z"/>
<path d="M3043 1835 c0 -8 4 -12 9 -9 5 3 6 10 3 15 -9 13 -12 11 -12 -6z"/>
<path d="M1830 1793 c0 -5 5 -15 10 -23 7 -12 9 -10 7 8 -1 19 -17 33 -17 15z"/>
<path d="M2035 1789 c-4 -6 -5 -12 -2 -15 2 -3 7 2 10 11 7 17 1 20 -8 4z"/>
<path d="M1396 1772 c-3 -5 4 -18 17 -28 21 -19 21 -19 7 0 -8 11 -13 21 -12
23 2 3 1 7 -1 9 -3 3 -8 1 -11 -4z"/>
<path d="M1977 1688 c-14 -24 -23 -45 -20 -48 5 -5 21 20 40 63 18 40 9 33
-20 -15z"/>
<path d="M1882 1696 c7 -8 15 -12 17 -11 5 6 -10 25 -20 25 -5 0 -4 -6 3 -14z"/>
<path d="M2586 1665 c-9 -26 -7 -32 5 -12 6 10 9 21 6 23 -2 3 -7 -2 -11 -11z"/>
<path d="M2976 1667 c3 -10 9 -15 12 -12 3 3 0 11 -7 18 -10 9 -11 8 -5 -6z"/>
<path d="M2960 1651 c0 -6 4 -13 10 -16 6 -3 7 1 4 9 -7 18 -14 21 -14 7z"/>
<path d="M2185 1576 c-67 -44 -397 -236 -405 -236 -5 0 -51 25 -102 56 -112
68 -120 72 -88 44 13 -12 45 -33 70 -47 25 -15 60 -37 78 -51 18 -13 39 -25
45 -26 11 -2 42 -20 127 -75 14 -9 42 -25 62 -36 l37 -19 -31 -56 c-17 -30
-35 -59 -40 -65 -5 -5 -38 -8 -74 -7 -40 2 -63 -1 -60 -7 3 -5 31 -8 61 -8 30
1 55 -2 55 -6 0 -4 -20 -43 -45 -87 -25 -44 -45 -85 -45 -92 1 -7 7 1 15 17
30 61 88 160 98 167 6 3 12 13 13 21 1 7 14 32 28 55 14 23 26 46 26 52 0 6
18 1 40 -11 21 -12 36 -27 33 -32 -3 -6 -1 -7 5 -3 11 7 126 -57 138 -75 2 -5
-10 -16 -28 -25 -18 -9 -35 -20 -38 -23 -3 -3 -35 -22 -72 -41 -38 -19 -68
-38 -68 -41 0 -3 -12 -11 -27 -18 -36 -16 -163 -92 -163 -97 0 -6 73 31 140
71 30 18 90 53 133 79 43 25 83 43 89 40 6 -4 8 -2 5 3 -4 6 4 18 18 27 28 19
49 21 39 4 -4 -7 -3 -8 4 -4 10 6 109 -49 252 -139 57 -36 172 -96 166 -87 -5
8 -45 33 -216 132 -125 72 -184 110 -175 111 6 0 70 1 143 1 l133 1 31 -59
c17 -32 39 -71 49 -86 11 -14 19 -31 19 -37 0 -6 5 -11 10 -11 6 0 10 -7 10
-15 0 -8 5 -15 11 -15 7 0 6 8 -3 23 -33 50 -108 185 -108 193 0 5 27 9 60 8
33 0 60 4 60 9 0 4 -30 7 -67 6 l-67 -2 -28 46 c-15 26 -24 47 -20 47 4 0 -2
7 -12 15 -11 8 -18 16 -15 18 11 9 210 127 214 127 3 0 5 -110 5 -244 0 -135
4 -247 8 -250 5 -3 8 107 8 244 -1 138 3 250 7 250 5 0 21 -8 35 -19 32 -22
112 -63 112 -57 0 4 -49 36 -105 68 l-30 17 72 1 c42 0 75 5 79 11 5 8 -15 10
-70 7 -42 -2 -76 -2 -76 -1 0 1 21 14 48 29 86 50 131 79 132 86 0 7 -167 -86
-184 -103 -17 -16 -38 -10 -100 30 -87 54 -273 164 -323 190 -90 45 -36 9 130
-90 234 -139 234 -139 217 -139 -58 -2 -263 -1 -265 2 -1 2 -15 26 -30 53 -86
152 -99 174 -103 170 -4 -4 69 -143 100 -187 10 -14 18 -28 18 -31 0 -3 -29
-7 -65 -9 l-65 -3 -1 110 c-1 61 -1 115 1 120 1 6 -4 5 -10 -1 -7 -8 -10 -47
-8 -118 l3 -106 -80 -1 c-44 0 -137 0 -207 1 -78 1 -129 -3 -133 -10 -4 -7 36
-10 125 -10 73 0 130 -3 128 -8 -14 -32 -63 -112 -68 -112 -4 0 -24 11 -44 25
-20 14 -39 25 -41 25 -14 0 -124 74 -120 81 5 7 151 96 227 139 102 57 146 83
168 100 28 22 16 26 -15 6z m525 -251 c11 -13 10 -14 -1 -10 -8 3 -57 -20
-109 -51 -52 -31 -99 -58 -105 -60 -5 -2 -23 21 -40 51 -16 30 -33 55 -38 55
-8 0 9 -34 47 -92 l17 -26 -106 -62 c-59 -34 -104 -64 -101 -67 3 -4 51 21
106 55 l101 61 23 -37 c54 -87 56 -82 -26 -83 -123 -1 -182 -5 -202 -14 -14
-6 -17 -5 -12 3 4 7 1 12 -6 12 -8 0 -64 30 -125 66 l-111 65 34 57 c19 31 34
59 34 64 0 4 130 8 289 8 183 0 292 4 296 10 9 14 21 12 35 -5z"/>
<path d="M2113 1282 c7 -16 20 -39 30 -53 10 -14 6 -1 -8 29 -27 55 -43 72
-22 24z"/>
<path d="M2240 1203 c0 -60 5 -115 10 -123 7 -10 10 25 10 108 0 75 -4 122
-10 122 -6 0 -10 -42 -10 -107z"/>
<path d="M2366 1263 c-6 -14 -5 -15 5 -6 7 7 10 15 7 18 -3 3 -9 -2 -12 -12z"/>
<path d="M2571 1587 c-1 -4 17 -39 39 -78 22 -39 40 -75 40 -80 0 -5 5 -9 10
-9 6 0 10 -6 10 -14 0 -7 7 -20 16 -27 9 -7 -6 27 -32 77 -52 95 -83 144 -83
131z"/>
<path d="M2166 1468 c-31 -56 -55 -106 -54 -110 2 -5 30 39 62 97 32 58 56
108 54 111 -3 3 -31 -41 -62 -98z"/>
<path d="M1847 1457 c-26 -50 -39 -81 -28 -67 11 14 21 28 21 32 0 3 16 34 34
67 19 34 32 61 28 61 -4 0 -29 -42 -55 -93z"/>
<path d="M1967 1539 c7 -7 15 -10 18 -7 3 3 -2 9 -12 12 -14 6 -15 5 -6 -5z"/>
<path d="M2117 1479 c7 -7 15 -10 18 -7 3 3 -2 9 -12 12 -14 6 -15 5 -6 -5z"/>
<path d="M2110 1439 c-7 -11 -10 -23 -7 -25 2 -2 9 7 15 21 14 30 7 33 -8 4z"/>
<path d="M2046 1395 c4 -8 11 -15 16 -15 6 0 5 6 -2 15 -7 8 -14 15 -16 15 -2
0 -1 -7 2 -15z"/>
<path d="M1610 1330 c0 -6 29 -10 66 -10 41 0 63 4 59 10 -3 6 -33 10 -66 10
-33 0 -59 -4 -59 -10z"/>
<path d="M1680 1275 c-30 -19 -51 -35 -46 -35 10 0 116 60 116 66 0 10 -20 2
-70 -31z"/>
<path d="M1772 1050 c2 -137 6 -250 10 -250 4 0 7 113 8 250 0 169 -3 250 -10
250 -7 0 -10 -80 -8 -250z"/>
<path d="M2767 1229 c7 -7 15 -10 18 -7 3 3 -2 9 -12 12 -14 6 -15 5 -6 -5z"/>
<path d="M2790 1195 c0 -5 5 -17 10 -25 5 -8 10 -10 10 -5 0 6 -5 17 -10 25
-5 8 -10 11 -10 5z"/>
<path d="M1680 1056 c0 -2 18 -6 40 -8 22 -2 40 0 40 4 0 5 -18 8 -40 8 -22 0
-40 -2 -40 -4z"/>
<path d="M1970 1051 c0 -11 189 -13 215 -1 13 6 -21 9 -97 9 -65 1 -118 -3
-118 -8z"/>
<path d="M2745 1050 c3 -5 12 -10 20 -10 8 0 17 5 20 10 4 6 -5 10 -20 10 -15
0 -24 -4 -20 -10z"/>
<path d="M2246 1001 c-9 -14 -2 -191 7 -191 4 0 7 45 6 100 -1 99 -3 108 -13
91z"/>
<path d="M2186 943 c-6 -14 -5 -15 5 -6 7 7 10 15 7 18 -3 3 -9 -2 -12 -12z"/>
<path d="M1760 770 c0 -5 9 -10 20 -10 11 0 20 5 20 10 0 6 -9 10 -20 10 -11
0 -20 -4 -20 -10z"/>
<path d="M1830 769 c0 -5 167 -8 414 -6 228 1 412 5 409 10 -6 11 -823 7 -823
-4z"/>
<path d="M2690 770 c-24 -8 -23 -8 8 -9 17 -1 32 4 32 9 0 11 -5 11 -40 0z"/>
<path d="M1810 752 c0 -12 348 -217 355 -210 4 4 -113 76 -140 87 -5 2 -56 33
-112 68 -57 35 -103 60 -103 55z"/>
<path d="M1778 723 c5 -21 7 -23 10 -9 2 10 0 22 -6 28 -6 6 -7 0 -4 -19z"/>
<path d="M2248 698 c5 -89 9 -97 11 -20 0 39 -2 72 -6 72 -5 0 -7 -24 -5 -52z"/>
<path d="M2615 717 c-27 -17 -56 -37 -63 -44 -7 -7 -18 -13 -23 -13 -11 0
-177 -99 -184 -110 -7 -11 99 48 235 129 121 73 118 71 99 71 -8 0 -36 -15
-64 -33z"/>
<path d="M1782 670 c0 -14 2 -19 5 -12 2 6 2 18 0 25 -3 6 -5 1 -5 -13z"/>
<path d="M2180 531 c0 -9 30 -24 36 -18 2 1 -6 8 -16 15 -11 7 -20 8 -20 3z"/>
<path d="M2233 496 c0 -7 6 -13 14 -13 7 0 13 4 13 8 0 4 -6 9 -13 12 -8 3
-14 0 -14 -7z"/>
<path d="M2190 460 c-8 -5 -10 -10 -5 -10 6 0 17 5 25 10 8 5 11 10 5 10 -5 0
-17 -5 -25 -10z"/>
<path d="M2150 430 c-9 -6 -10 -10 -3 -10 6 0 15 5 18 10 8 12 4 12 -15 0z"/>
<path d="M1018 3283 c12 -2 32 -2 45 0 12 2 2 4 -23 4 -25 0 -35 -2 -22 -4z"/>
<path d="M1032 3128 c-28 -18 -52 -36 -52 -41 0 -7 37 14 65 36 6 4 19 14 30
22 36 26 11 16 -43 -17z"/>
<path d="M998 3003 c23 -2 59 -2 80 0 20 2 1 4 -43 4 -44 0 -61 -2 -37 -4z"/>
<path d="M994 2905 c11 -8 25 -15 32 -15 6 0 17 -7 25 -16 7 -8 26 -22 43 -31
54 -28 12 12 -49 47 -55 31 -84 40 -51 15z"/>
<path d="M1008 2723 c23 -2 61 -2 85 0 23 2 4 4 -43 4 -47 0 -66 -2 -42 -4z"/>
<path d="M1075 2595 c-27 -19 -55 -34 -61 -34 -7 -1 -15 -8 -18 -17 -6 -15 -5
-15 16 0 13 9 43 27 68 41 67 36 79 45 60 44 -8 0 -37 -16 -65 -34z"/>
<path d="M1025 2450 l-40 -7 43 -2 c23 0 42 4 42 9 0 6 -1 9 -2 9 -2 -1 -21
-5 -43 -9z"/>
<path d="M3443 3283 c15 -2 37 -2 50 0 12 2 0 4 -28 4 -27 0 -38 -2 -22 -4z"/>
<path d="M3445 3129 c17 -11 44 -27 60 -35 l30 -15 -25 20 c-25 21 -78 51 -89
51 -3 0 8 -9 24 -21z"/>
<path d="M3428 3003 c23 -2 59 -2 80 0 20 2 1 4 -43 4 -44 0 -61 -2 -37 -4z"/>
<path d="M3490 2910 c-19 -11 -39 -23 -45 -27 -5 -5 -23 -16 -38 -26 -16 -10
-27 -21 -24 -23 5 -5 147 84 147 91 0 7 0 7 -40 -15z"/>
<path d="M3408 2723 c23 -2 59 -2 80 0 20 2 1 4 -43 4 -44 0 -61 -2 -37 -4z"/>
<path d="M3365 2620 c3 -5 25 -20 48 -31 22 -12 47 -28 55 -35 7 -8 19 -14 25
-14 7 0 6 5 -3 13 -22 21 -133 80 -125 67z"/>
<path d="M3448 2443 c12 -2 32 -2 45 0 12 2 2 4 -23 4 -25 0 -35 -2 -22 -4z"/>
<path d="M1090 1731 c14 -11 30 -21 36 -21 5 0 19 -8 30 -17 10 -10 39 -29 64
-42 77 -41 78 -44 23 -77 -26 -16 -59 -35 -73 -42 -14 -7 -36 -21 -50 -32 -37
-29 4 -14 55 20 22 15 55 36 74 46 79 44 81 36 -21 97 -51 30 -109 62 -128 71
l-35 17 25 -20z"/>
<path d="M1150 1741 c0 -6 4 -13 10 -16 6 -3 7 1 4 9 -7 18 -14 21 -14 7z"/>
<path d="M1083 1608 c-2 -5 40 -8 93 -8 54 0 95 2 92 5 -8 8 -180 11 -185 3z"/>
<path d="M1330 1591 c0 -5 7 -12 16 -15 14 -5 15 -4 4 9 -14 17 -20 19 -20 6z"/>
<path d="M1300 1360 c0 -121 3 -220 8 -220 4 0 8 99 8 220 1 121 -2 220 -7
220 -5 0 -9 -99 -9 -220z"/>
<path d="M1145 1330 c-13 -6 8 -9 63 -9 45 -1 82 3 82 8 0 11 -119 12 -145 1z"/>
<path d="M1330 1330 c0 -6 27 -10 60 -10 33 0 60 4 60 10 0 6 -27 10 -60 10
-33 0 -60 -4 -60 -10z"/>
<path d="M1412 1121 c-74 -44 -107 -75 -42 -38 103 57 134 77 120 76 -8 0 -43
-18 -78 -38z"/>
<path d="M1170 1136 c0 -9 111 -79 116 -73 3 3 -12 15 -33 28 -21 12 -48 29
-60 37 -13 8 -23 11 -23 8z"/>
<path d="M1230 1126 c0 -2 7 -7 16 -10 8 -3 12 -2 9 4 -6 10 -25 14 -25 6z"/>
<path d="M1300 1105 c0 -15 4 -24 10 -20 6 3 10 12 10 20 0 8 -4 17 -10 20 -6
4 -10 -5 -10 -20z"/>
<path d="M1300 1050 c0 -5 5 -10 10 -10 6 0 10 5 10 10 0 6 -4 10 -10 10 -5 0
-10 -4 -10 -10z"/>
<path d="M1405 1052 c8 -9 106 -8 111 0 3 5 -22 8 -55 6 -33 -1 -58 -4 -56 -6z"/>
<path d="M1339 1027 c7 -9 19 -17 26 -17 8 0 15 -4 17 -8 2 -4 34 -25 72 -46
38 -21 66 -34 62 -28 -3 5 -30 23 -59 40 -28 16 -70 40 -92 53 -30 17 -36 19
-26 6z"/>
<path d="M1416 888 c3 -5 10 -6 15 -3 13 9 11 12 -6 12 -8 0 -12 -4 -9 -9z"/>
<path d="M1515 770 c3 -5 10 -10 16 -10 5 0 9 5 9 10 0 6 -7 10 -16 10 -8 0
-12 -4 -9 -10z"/>
<path d="M1560 770 c0 -5 5 -10 10 -10 6 0 10 5 10 10 0 6 -4 10 -10 10 -5 0
-10 -4 -10 -10z"/>
<path d="M1605 4241 c-6 -11 13 -26 22 -17 4 3 0 6 -8 6 -11 0 -11 2 1 10 9 6
10 10 3 10 -6 0 -14 -4 -18 -9z"/>
<path d="M1450 4166 c7 -7 13 -7 20 0 6 6 3 10 -10 10 -13 0 -16 -4 -10 -10z"/>
<path d="M3033 4155 c0 -8 4 -12 9 -9 5 3 6 10 3 15 -9 13 -12 11 -12 -6z"/>
<path d="M1286 4083 c-6 -14 -5 -15 5 -6 7 7 10 15 7 18 -3 3 -9 -2 -12 -12z"/>
<path d="M1309 4073 c-13 -16 -12 -17 4 -4 9 7 17 15 17 17 0 8 -8 3 -21 -13z"/>
<path d="M3165 4080 c-4 -6 1 -7 11 -3 13 5 15 3 9 -7 -5 -9 -4 -11 4 -6 6 4
9 12 6 17 -8 12 -22 12 -30 -1z"/>
<path d="M1059 3843 c-13 -16 -12 -17 4 -4 9 7 17 15 17 17 0 8 -8 3 -21 -13z"/>
<path d="M821 2194 c0 -11 3 -14 6 -6 3 7 2 16 -1 19 -3 4 -6 -2 -5 -13z"/>
<path d="M1063 1005 c0 -8 4 -12 9 -9 5 3 6 10 3 15 -9 13 -12 11 -12 -6z"/>
<path d="M3161 707 c2 -1 13 -9 24 -17 19 -14 19 -14 6 3 -7 9 -18 17 -24 17
-6 0 -8 -1 -6 -3z"/>
<path d="M3141 686 c2 -2 15 -9 29 -15 24 -11 24 -11 6 3 -16 13 -49 24 -35
12z"/>
<path d="M3094 639 c-3 -6 -1 -16 5 -22 9 -9 10 -7 5 7 -6 15 -4 17 6 11 9 -5
11 -4 6 3 -9 15 -13 15 -22 1z"/>
<path d="M1367 596 c-4 -10 -1 -13 8 -9 8 3 12 9 9 14 -7 12 -11 11 -17 -5z"/>
<path d="M1566 445 c4 -11 2 -14 -9 -9 -8 3 -17 1 -21 -4 -3 -5 5 -8 16 -7 24
2 35 19 19 30 -7 3 -8 0 -5 -10z"/>
<path d="M1606 353 c-6 -14 -5 -15 5 -6 7 7 10 15 7 18 -3 3 -9 -2 -12 -12z"/>
<path d="M2765 278 c21 -12 23 -12 28 -1 1 3 -9 8 -23 9 -23 4 -24 3 -5 -8z"/>
<path d="M1915 210 c-3 -6 1 -7 9 -4 18 7 21 14 7 14 -6 0 -13 -4 -16 -10z"/>
<path d="M2548 213 c6 -2 9 -10 6 -15 -4 -7 -2 -8 5 -4 13 9 5 26 -12 25 -9 0
-8 -2 1 -6z"/>
</g>
</svg>
